<svg class="c-maze c-maze--r" xmlns="http://www.w3.org/2000/svg" width="152" height="152" viewBox="0 0 152 152">
  <g fill="none" fill-rule="evenodd" transform="translate(-.125)">
    <path class="c-maze__solution" troke="#FF0055" d="M0.5,75.5412 L4,75.5412 L4,43.066 L9.9537,43.066 L9.9537,73.066 L9.9537,101.9071 L9.9537,106.6016 L4,106.6016 L4,129.5157 L9.9537,129.5157 L9.9537,142.2506 L16.0006,142.2506 L16.0006,52.8745 L22.0006,52.8745 L22.0006,61.066 L22.0006,64.8832 L22.0006,69.5409 L48.315,69.5409 L48.315,75.5412 L37.5007,75.5412 L37.5007,81.5409 L104.467,81.5409 C104.467,81.5409 116.181,81.2402 121.501,87.4954 C121.584,87.5939 127.501,84.0159 127.501,84.0159 C127.501,84.0159 135.801,93.0946 136.04,103.066 C136.119,106.3663 136.067,112.3928 136.047,114.3975 C136.042,114.8219 136.04,115.066 136.04,115.066 L141.886,115.066 L141.886,107.8407 L147.976,107.8407 L147.976,147.5409 L151.501,147.5409" stroke-linejoin="round"/>
    <path class="c-maze__walls" fill="#000000" d="M1.5,94.8035 L6.4999,94.8035 L6.4999,95.8035 L1.5,95.8035 L1.5,150.066 L30.5,150.066 L30.5,138.8485 L25.5001,138.8485 L25.5001,144.566 L25.4756,144.7206 C25.4519,144.767 25.4352,144.8177 25.4046,144.8599 C25.3425,144.9454 25.255,145.0089 25.1546,145.0416 C25.1062,145.0573 25.0542,145.0579 25.0001,145.066 L6.9999,145.066 C6.9484,145.0579 6.895,145.0577 6.8454,145.0416 C6.6943,144.9925 6.5735,144.8717 6.5244,144.7206 C6.5083,144.671 6.5081,144.6175 6.4999,144.566 L6.4999,131.5157 L7.4999,131.5157 L7.4999,144.066 L24.5001,144.066 L24.5001,115.566 L19.5007,115.566 L19.5007,114.566 L24.5001,114.566 L24.5001,109.066 L25.5001,109.066 L25.5001,137.8485 L30.5,137.8485 L30.5,99.7021 L25.5007,99.7021 L25.5007,98.7021 L30.5,98.7021 L30.5,90.566 L30.5245,90.4115 C30.5481,90.365 30.5648,90.3143 30.5955,90.2721 C30.6576,90.1867 30.7451,90.1231 30.8455,90.0905 C30.8951,90.0744 30.9485,90.0742 31,90.066 L73.3591,90.066 L73.3591,85.066 L38.8676,85.066 L38.8676,89.9461 L37.8676,89.9461 L37.8676,85.066 L31.5007,85.066 L31.5007,84.0615 C56.4265,84.0283 81.3531,83.83 106.278,84.0678 C107.1,84.0809 107.92,84.1351 108.736,84.239 C110.323,84.4409 111.887,84.8214 113.39,85.3718 C116.195,86.3998 118.774,88.0209 120.924,90.0952 C123.323,92.4098 125.176,95.2794 126.284,98.4246 C126.816,99.9363 127.177,101.5069 127.36,103.0992 C127.454,103.9181 127.497,104.7411 127.5,105.5652 L127.5,106.566 L126.51,106.566 C126.506,106.1444 126.502,105.7228 126.498,105.3012 C126.486,104.5602 126.44,103.8204 126.351,103.0846 C126.162,101.5278 125.795,99.9933 125.256,98.5208 C124.643,96.8499 123.811,95.2596 122.787,93.8036 C121.726,92.2927 120.461,90.9253 119.037,89.7497 C117.155,88.1964 114.997,86.9819 112.691,86.1845 C111.287,85.699 109.829,85.3689 108.353,85.1999 C107.573,85.1106 106.788,85.0686 105.999,85.066 L104.147,85.066 L104.147,90.066 L106.002,90.066 C106.596,90.07 107.188,90.0996 107.778,90.1672 C108.989,90.3059 110.183,90.5883 111.328,91.0075 C113.73,91.8875 115.898,93.3716 117.596,95.2848 C118.923,96.7804 119.958,98.5314 120.623,100.4175 C121.007,101.5073 121.267,102.6398 121.399,103.7878 C121.466,104.3781 121.496,104.9705 121.5,105.5645 L121.5,121.3394 L126.552,121.3394 L126.552,121.8774 C126.557,118.4402 126.555,115.0031 126.541,111.566 L127.5,111.566 L127.5,128.8954 L132.518,128.8954 C132.54,121.0047 132.569,113.114 132.498,105.2238 C132.483,104.3215 132.43,103.421 132.327,102.5243 C132.09,100.4548 131.607,98.4143 130.891,96.4584 C129.687,93.172 127.822,90.1413 125.448,87.5743 L125.551,87.5135 C125.81,87.3599 126.068,87.2062 126.327,87.0521 C127.003,87.7935 127.639,88.5715 128.23,89.3822 C129.801,91.5361 131.057,93.9169 131.944,96.431 C132.626,98.3638 133.088,100.3744 133.321,102.4106 C133.44,103.4582 133.496,104.5109 133.5,105.5651 L133.5,123.1059 L138.5,123.1059 L138.5,117.066 L139.5,117.066 L139.5,138.566 C139.492,138.6175 139.492,138.671 139.476,138.7206 C139.426,138.8717 139.306,138.9925 139.155,139.0416 C139.106,139.0574 139.054,139.0579 139,139.066 L133,139.066 C132.949,139.0579 132.895,139.0577 132.846,139.0416 C132.694,138.9925 132.574,138.8717 132.525,138.7206 C132.508,138.671 132.508,138.6175 132.5,138.566 C132.5,135.676 132.507,132.786 132.515,129.8954 L127.5,129.8954 L127.5,144.066 L133.501,144.066 L133.501,145.066 L127,145.066 C126.948,145.0579 126.895,145.0577 126.845,145.0416 C126.694,144.9925 126.574,144.8717 126.524,144.7206 C126.508,144.671 126.508,144.6175 126.5,144.566 C126.5,142.86 126.502,141.1539 126.505,139.4479 L121.632,139.4479 L121.632,138.4479 L126.508,138.4479 C126.52,133.0786 126.543,127.7093 126.551,122.3394 L121.5,122.3394 L121.5,150.066 L150.5,150.066 L150.5,150.066 L151.5,150.066 L151.5,150.566 L151.476,150.7205 C151.452,150.767 151.435,150.8177 151.405,150.8599 C151.342,150.9453 151.255,151.0089 151.155,151.0415 C151.106,151.0572 151.054,151.0578 151,151.066 L121,151.066 C120.948,151.0578 120.895,151.0576 120.845,151.0415 C120.694,150.9924 120.574,150.8716 120.524,150.7205 C120.508,150.6709 120.508,150.6175 120.5,150.566 C120.5,135.5036 120.59,120.4408 120.499,105.3787 C120.487,104.7627 120.445,104.1491 120.359,103.5388 C120.218,102.5311 119.97,101.5382 119.62,100.5829 C118.996,98.882 118.05,97.3035 116.848,95.9485 C115.22,94.1138 113.13,92.7023 110.816,91.8865 C109.797,91.5272 108.738,91.2836 107.665,91.1607 C107.112,91.0975 106.558,91.0698 105.998,91.066 L31.5,91.066 L31.5,150.566 L31.4755,150.7205 C31.4519,150.767 31.4352,150.8177 31.4045,150.8599 C31.3424,150.9453 31.2549,151.0089 31.1545,151.0415 C31.1061,151.0572 31.0542,151.0578 31,151.066 L1,151.066 C0.9485,151.0578 0.8951,151.0576 0.8455,151.0415 C0.6944,150.9924 0.5736,150.8716 0.5245,150.7205 C0.5084,150.6709 0.5082,150.6175 0.5,150.566 L0.5,78.0412 L1.5,78.0412 L1.5,94.8035 Z M145,145.066 L138.755,145.066 L138.755,144.066 L144.5,144.066 C144.5,132.6576 144.53,121.249 144.51,109.8407 L145.5,109.8407 L145.5,144.566 C145.492,144.6175 145.492,144.671 145.475,144.7206 C145.426,144.8717 145.306,144.9925 145.154,145.0416 C145.106,145.0573 145.054,145.0579 145,145.066 L145,145.066 Z M1.5,73.0412 L0.5,73.0412 L0.5,0.566 C0.5082,0.514 0.5084,0.461 0.5245,0.411 C0.5736,0.26 0.6944,0.14 0.8455,0.09 C0.8951,0.074 0.9485,0.074 1,0.066 C28.9469,0.066 56.8939,-0.005 84.8408,0.023 L84.8408,0 L85.8408,0 L85.8408,0.024 C92.6585,0.031 99.4763,0.045 106.294,0.067 C107.073,0.074 107.852,0.096 108.63,0.141 C109.973,0.218 111.312,0.354 112.642,0.548 C116.259,1.078 119.809,2.048 123.192,3.431 C128.023,5.406 132.501,8.222 136.384,11.709 C139.979,14.937 143.059,18.737 145.468,22.925 C147.732,26.863 149.403,31.139 150.397,35.571 C151.09,38.659 151.457,41.82 151.497,44.985 L151.501,44.985 L151.501,45.985 L151.499,45.985 C151.477,48.351 151.274,50.715 150.887,53.0478 C150.347,56.3041 149.449,59.4989 148.215,62.5603 C146.91,65.7977 145.227,68.8824 143.216,71.7352 C142.29,73.0486 141.293,74.3083 140.238,75.5202 L140.198,75.5659 C140.371,75.7619 140.541,75.9606 140.71,76.1596 C140.869,76.3477 141.027,76.5367 141.183,76.7264 C141.858,77.5538 142.509,78.3998 143.127,79.2704 C144.463,81.1526 145.657,83.137 146.692,85.2004 C148.458,88.7204 149.762,92.4692 150.559,96.3259 C151.115,99.011 151.421,101.7443 151.487,104.485 L151.5,104.566 L151.5,145.066 L150.5,145.066 L150.5,104.6383 L150.489,104.5782 C150.483,104.3202 150.475,104.0624 150.466,103.8045 C150.413,102.5311 150.313,101.2605 150.154,99.9957 C149.985,98.642 149.753,97.2961 149.459,95.9637 L144.699,97.6203 C145.025,99.2135 145.252,100.8269 145.379,102.4482 C145.46,103.4855 145.497,104.5248 145.5,105.5652 L145.5,105.8407 L144.501,105.8407 L144.499,105.2871 C144.488,104.2741 144.445,103.2624 144.359,102.2529 C144.175,100.1004 143.81,97.9634 143.267,95.8724 C142.045,91.1684 139.917,86.713 137.041,82.7983 L132.86,85.5534 C133.57,86.5039 134.229,87.4919 134.835,88.5125 C136.305,90.9915 137.452,93.6602 138.238,96.4334 C138.793,98.3947 139.167,100.4074 139.356,102.4372 C139.452,103.4774 139.495,104.5203 139.5,105.5648 L139.5,113.066 L138.5,113.066 L138.5,105.5671 C138.496,104.5526 138.454,103.5399 138.36,102.5296 C138.159,100.3664 137.741,98.2239 137.111,96.1446 C136.192,93.1071 134.82,90.2096 133.06,87.5693 C131.267,84.8799 129.072,82.4605 126.572,80.4125 C125.172,79.2654 123.676,78.2347 122.104,77.3359 C121.271,76.8593 120.417,76.4241 119.547,76.0194 L119.428,75.9422 C119.347,75.8482 119.313,75.8289 119.277,75.7061 C119.224,75.5213 119.283,75.3169 119.428,75.19 C119.463,75.1589 119.507,75.1385 119.546,75.1127 C119.809,74.9906 119.808,74.9909 120.07,74.8663 C120.501,74.6563 120.929,74.4407 121.352,74.2138 C122.193,73.7616 123.014,73.2722 123.813,72.7477 C126.355,71.0775 128.662,69.0497 130.645,66.7434 C131.149,66.158 131.631,65.5548 132.092,64.9353 L128.085,61.9456 C127.412,62.8523 126.683,63.7179 125.903,64.5354 C123.424,67.1338 120.442,69.2426 117.161,70.7032 C114.94,71.6918 112.588,72.3811 110.185,72.7489 C108.801,72.9607 107.403,73.0619 106.001,73.066 L90.6653,73.066 L90.6653,77.9668 C95.8952,77.9857 101.125,78.018 106.355,78.0682 C107.233,78.0821 108.11,78.1318 108.983,78.2262 C111.022,78.4469 113.037,78.8963 114.976,79.5667 C117.496,80.4381 119.886,81.6801 122.05,83.239 C122.476,83.5461 122.894,83.8654 123.301,84.1963 L122.962,84.3974 C122.767,84.5114 122.573,84.6255 122.378,84.7391 C120.06,82.9139 117.44,81.4766 114.649,80.5118 C112.781,79.866 110.84,79.433 108.875,79.2204 C107.92,79.1172 106.961,79.0688 105.999,79.066 L39.5008,79.066 L39.5008,78.0308 C56.2226,77.9825 72.9443,77.9073 89.6653,77.9631 L89.6653,73.066 L50.315,73.066 L50.315,72.1331 C68.9912,72.192 87.6673,72.2432 106.342,72.0638 C107.578,72.0443 108.812,71.9474 110.034,71.7604 C112.455,71.3898 114.822,70.6799 117.048,69.6568 C120.19,68.2122 123.041,66.146 125.397,63.6139 C127.65,61.1921 129.446,58.3551 130.661,55.2783 C130.963,54.5125 131.229,53.7327 131.458,52.9423 L126.764,51.1534 C126.533,52.0151 126.248,52.8626 125.91,53.6897 C124.895,56.1723 123.41,58.4553 121.56,60.3966 C119.624,62.4291 117.29,64.0764 114.726,65.2187 C113.031,65.9736 111.237,66.5056 109.405,66.7973 C108.28,66.9764 107.144,67.0621 106.001,67.066 L84.4398,67.066 L84.4398,72.0497 L83.4398,72.0497 L83.4398,67.066 L76.0003,67.066 L76.0003,66.1777 C84.6268,66.1838 93.2533,66.1669 101.879,66.1017 L101.265,66.1017 L101.265,61.066 L65.8038,61.066 L65.8038,66.1612 C67.4514,66.1651 69.0989,66.1685 70.7464,66.1713 L70.7464,67.066 L25.0001,67.066 C24.9486,67.0578 24.8952,67.0576 24.8456,67.0415 C24.6945,66.9924 24.5736,66.8716 24.5245,66.7205 C24.5084,66.6709 24.5082,66.6175 24.5001,66.566 L24.5001,45.566 L25.5001,45.566 L25.5001,66.066 C38.6012,66.066 51.7026,66.1264 64.8038,66.1588 L64.8038,61.066 L31,61.066 C30.9485,61.0578 30.8951,61.0576 30.8455,61.0415 C30.6944,60.9924 30.5736,60.8716 30.5245,60.7205 C30.5084,60.6709 30.5082,60.6175 30.5,60.566 L30.5,30.566 C30.5082,30.514 30.5084,30.461 30.5245,30.411 C30.5736,30.26 30.6944,30.14 30.8455,30.09 C30.8951,30.074 30.9485,30.074 31,30.066 C35.7299,30.066 40.4598,30.06 45.1898,30.052 L44.6771,30.052 L44.6771,25.033 C38.2847,25.052 31.8924,25.066 25.5001,25.066 L25.5001,40.566 L24.5001,40.566 L24.5001,24.566 C24.5082,24.514 24.5084,24.461 24.5245,24.411 C24.5736,24.26 24.6945,24.14 24.8456,24.09 C24.8952,24.074 24.9486,24.074 25.0001,24.066 C34.8884,24.066 44.7767,24.055 54.665,24.044 L54.665,18.99 C42.9433,19.023 31.2215,19.066 19.5,19.066 L19.5,50.874 L18.5,50.874 L18.5,18.566 C18.5081,18.515 18.5083,18.461 18.5244,18.411 C18.5735,18.26 18.6943,18.14 18.8455,18.09 C18.8951,18.074 18.9485,18.074 19,18.066 C28.6016,18.066 38.2033,18.055 47.805,18.045 L47.805,13.066 L13.5,13.066 L13.5,26.066 L12.5,26.066 L12.5,12.566 C12.5082,12.515 12.5084,12.461 12.5245,12.412 C12.5736,12.26 12.6944,12.14 12.8455,12.091 C12.8951,12.074 12.9485,12.074 13,12.066 L24.1435,12.066 L24.1435,7.066 L20.8049,7.066 L20.8049,6.066 L30.5007,6.066 L30.5007,1.047 C25.0007,1.053 19.5006,1.058 14.0006,1.062 L14.0006,6.066 L15.551,6.066 L15.551,7.066 L7.4999,7.066 L7.4999,41.066 L6.4999,41.066 L6.4999,6.566 C6.5081,6.515 6.5083,6.461 6.5244,6.412 C6.5735,6.26 6.6943,6.14 6.8454,6.091 C6.895,6.074 6.9484,6.074 6.9999,6.066 L13.0006,6.066 L13.0006,1.062 C9.1671,1.065 5.3335,1.066 1.5,1.066 L1.5,73.0412 Z M13.5,138.066 L14.0007,138.066 L14.0007,139.066 L13,139.066 C12.9485,139.0579 12.8951,139.0577 12.8455,139.0416 C12.6944,138.9925 12.5736,138.8717 12.5245,138.7206 C12.5084,138.671 12.5082,138.6175 12.5,138.566 L12.5,31.066 L13.5,31.066 L13.5,138.066 Z M35.5008,79.066 L19.5,79.066 L19.5,88.1214 L24.5001,88.1214 L24.5001,84.566 L24.5245,84.4115 C24.5482,84.365 24.5649,84.3143 24.5956,84.2721 C24.6576,84.1867 24.7451,84.1231 24.8456,84.0905 C24.8952,84.0744 24.9486,84.0742 25.0001,84.066 C25.4156,84.066 25.8312,84.066 26.2467,84.0658 L26.2467,85.066 L25.5001,85.066 L25.5001,91.066 L24.5001,91.066 L24.5001,89.1214 L19.5,89.1214 L19.5,138.566 L19.4755,138.7206 C19.4518,138.767 19.4351,138.8177 19.4045,138.8599 C19.3424,138.9454 19.2549,139.0089 19.1545,139.0416 C19.1058,139.0574 19.0535,139.0579 19,139.066 L18.0007,139.066 L18.0007,138.066 L18.5,138.066 L18.5,78.566 L18.5244,78.4115 C18.5481,78.3651 18.5648,78.3143 18.5955,78.2721 C18.6575,78.1867 18.745,78.1231 18.8455,78.0905 C18.8951,78.0744 18.9485,78.0742 19,78.066 C24.5001,78.066 30.0003,78.0561 35.5008,78.0419 L35.5008,79.066 Z M133.5,138.066 L138.5,138.066 L138.5,124.1058 L133.5,124.1058 L133.5,138.066 Z M6.4999,127.5157 L7.4999,127.5157 L7.4999,108.6015 L6.4999,108.6015 L6.4999,127.5157 Z M6.4999,104.6015 L7.4999,104.6015 L7.4999,45.066 L6.4999,45.066 L6.4999,104.6015 Z M24.5001,104.0661 L25.5001,104.0661 L25.5001,96.0659 L24.5001,96.0659 L24.5001,104.0661 Z M149.348,95.4728 C149.205,94.8559 149.049,94.242 148.879,93.6318 C147.702,89.4003 145.889,85.3517 143.525,81.6504 C142.573,80.1605 141.532,78.7273 140.41,77.3609 C140.003,76.8643 139.583,76.3782 139.156,75.8982 L139.076,75.7771 C139.063,75.7308 139.042,75.686 139.035,75.6382 C139.021,75.5415 139.035,75.4429 139.077,75.3544 C139.097,75.3106 139.13,75.2736 139.156,75.2333 C139.322,75.0479 139.486,74.8617 139.649,74.6744 C140.22,74.0117 140.773,73.3338 141.305,72.6408 L137.429,69.4829 C136.688,70.4551 135.902,71.3932 135.074,72.2932 C134.01,73.4504 132.876,74.541 131.684,75.566 C131.87,75.7252 132.053,75.8859 132.236,76.0476 C132.83,76.5791 133.41,77.124 133.973,77.6884 C135.285,79.0055 136.506,80.4146 137.621,81.9024 C140.798,86.1386 143.11,91.0087 144.369,96.1522 C144.409,96.3132 144.447,96.4745 144.485,96.6361 L149.184,95.0007 L149.348,95.4728 Z M74.3591,90.066 L103.1475,90.066 L103.1475,85.066 L74.3591,85.066 L74.3591,90.066 Z M133.221,41.647 L132.211,41.647 C132.036,40.469 131.782,39.302 131.449,38.158 C130.744,35.734 129.687,33.412 128.323,31.288 C127.398,29.847 126.335,28.497 125.153,27.26 L121.617,30.795 C122.249,31.463 122.839,32.171 123.38,32.913 C124.815,34.882 125.915,37.093 126.61,39.429 C127.294,41.727 127.586,44.139 127.479,46.534 C127.424,47.759 127.264,48.978 127.002,50.174 L131.719,51.9715 C132.151,50.229 132.406,48.442 132.478,46.647 L133.479,46.647 C133.477,46.699 133.475,46.752 133.473,46.804 C133.333,49.942 132.654,53.0488 131.466,55.9566 C130.723,57.7763 129.781,59.5134 128.667,61.1321 L132.676,64.1236 C133.683,62.6784 134.573,61.1522 135.334,59.5637 L136.202,60.0651 C134.931,62.7034 133.314,65.1737 131.403,67.3954 C128.494,70.7784 124.909,73.5775 120.914,75.566 C121.043,75.6303 121.172,75.696 121.301,75.7616 C122.088,76.1714 122.861,76.6048 123.616,77.0724 C125.2,78.0544 126.702,79.1686 128.102,80.3991 C129.61,81.7253 130.999,83.1865 132.248,84.759 L136.437,81.9986 C136.302,81.8242 136.165,81.6509 136.027,81.4789 C134.999,80.2009 133.891,78.988 132.711,77.8498 C132.027,77.1902 131.317,76.5595 130.589,75.9493 L130.492,75.841 C130.472,75.7972 130.445,75.7559 130.431,75.7095 C130.389,75.5688 130.411,75.4138 130.492,75.2911 C130.519,75.2507 130.556,75.2189 130.589,75.1828 C130.788,75.0161 130.985,74.8483 131.182,74.679 C132.288,73.7147 133.345,72.6966 134.338,71.6163 C136.801,68.9387 138.883,65.9154 140.502,62.6577 C142.434,58.7705 143.694,54.5581 144.218,50.25 L139.231,49.815 C138.992,51.6907 138.596,53.5458 138.044,55.3551 L137.155,54.8415 C138.068,51.7695 138.519,48.565 138.499,45.36 C138.479,41.956 137.924,38.559 136.852,35.327 C136.228,33.447 135.429,31.628 134.472,29.895 L130.229,32.556 C131.139,34.247 131.873,36.034 132.409,37.878 C132.769,39.114 133.039,40.374 133.221,41.647 L133.221,41.647 Z M46.315,73.066 L19,73.066 C18.9485,73.0578 18.8951,73.0576 18.8455,73.0415 C18.6943,72.9924 18.5735,72.8716 18.5244,72.7205 C18.5083,72.6709 18.5081,72.6175 18.5,72.566 L18.5,54.8745 L19.5,54.8745 L19.5,72.066 C28.4382,72.066 37.3765,72.0923 46.315,72.1207 L46.315,73.066 Z M141.848,62.1653 C141.627,62.6418 141.396,63.1139 141.156,63.5812 C140.243,65.3568 139.195,67.062 138.026,68.6792 L141.907,71.8408 C142.367,71.2145 142.811,70.5763 143.237,69.9261 C144.486,68.0222 145.588,66.0225 146.531,63.9502 L141.848,62.1653 Z M102.265,61.066 L102.265,66.0987 C103.599,66.0885 104.932,66.077 106.265,66.0643 C107.264,66.0483 108.261,65.9669 109.248,65.8098 C111.076,65.5187 112.864,64.9763 114.546,64.2026 C116.978,63.0839 119.181,61.4859 121.005,59.5275 C122.749,57.6555 124.137,55.4584 125.077,53.0792 C125.923,50.94 126.399,48.657 126.485,46.358 C126.569,44.117 126.291,41.864 125.651,39.714 C124.989,37.487 123.94,35.38 122.572,33.502 C121.363,31.845 119.905,30.37 118.262,29.141 C116.706,27.977 114.984,27.034 113.163,26.354 C111.776,25.837 110.333,25.47 108.866,25.265 C108.004,25.144 107.135,25.082 106.265,25.068 C105.566,25.061 104.868,25.055 104.169,25.049 L104.169,30.055 C104.846,30.059 105.523,30.063 106.2,30.067 C106.793,30.078 107.384,30.116 107.973,30.191 C109.242,30.352 110.491,30.672 111.682,31.142 C113.192,31.738 114.605,32.574 115.858,33.608 C117.054,34.595 118.102,35.762 118.955,37.057 C119.819,38.37 120.482,39.813 120.912,41.325 C121.358,42.894 121.55,44.534 121.489,46.164 C121.423,47.903 121.062,49.628 120.424,51.2472 C119.714,53.0465 118.663,54.7067 117.346,56.1223 C115.946,57.6263 114.249,58.8481 112.377,59.6954 C110.982,60.3272 109.492,60.7477 107.973,60.9413 C107.32,61.0245 106.664,61.0615 106.002,61.066 L102.265,61.066 Z M150.498,45.985 L145.498,45.985 C145.482,47.54 145.375,49.093 145.177,50.634 C144.708,54.2889 143.722,57.872 142.258,61.2514 L146.935,63.0341 C147.154,62.5211 147.364,62.0039 147.564,61.4829 C148.724,58.4639 149.548,55.316 150.02,52.1168 C150.32,50.087 150.479,48.037 150.498,45.985 L150.498,45.985 Z M31.5,31.066 L31.5,60.066 C56.3958,60.066 81.2922,60.2303 106.187,60.0647 C106.864,60.052 107.538,60.0011 108.207,59.8987 C109.561,59.6915 110.884,59.2906 112.125,58.7108 C113.813,57.9218 115.344,56.8051 116.614,55.4411 C117.846,54.1167 118.83,52.5637 119.494,50.88 C120.091,49.366 120.428,47.753 120.489,46.127 C120.547,44.601 120.368,43.067 119.95,41.598 C119.548,40.185 118.928,38.835 118.12,37.607 C117.321,36.395 116.341,35.303 115.221,34.379 C114.049,33.412 112.727,32.63 111.314,32.072 C110.201,31.633 109.033,31.334 107.846,31.183 C107.296,31.113 106.742,31.078 106.187,31.067 C81.2922,30.902 56.3958,31.066 31.5,31.066 L31.5,31.066 Z M143.507,36.848 L138.721,38.362 C139.224,40.656 139.485,43.003 139.499,45.354 C139.506,46.512 139.454,47.669 139.342,48.821 L144.325,49.255 C144.708,45.243 144.464,41.171 143.595,37.235 C143.566,37.106 143.537,36.977 143.507,36.848 L143.507,36.848 Z M148.07,31.038 L143.299,32.547 C143.864,34.163 144.323,35.816 144.673,37.492 C145.186,39.956 145.46,42.469 145.496,44.985 L150.497,44.985 C150.456,41.894 150.098,38.807 149.421,35.79 C149.06,34.182 148.609,32.595 148.07,31.038 L148.07,31.038 Z M73.2593,7.066 L40.3453,7.066 L40.3453,12.066 L52.8737,12.066 L52.8737,13.066 L48.805,13.066 L48.805,18.043 C67.9292,18.022 87.0535,18.002 106.178,18.067 C107.289,18.077 108.398,18.147 109.5,18.287 C111.53,18.546 113.53,19.032 115.452,19.736 C117.849,20.615 120.121,21.831 122.184,23.336 C124.764,25.219 127.012,27.549 128.801,30.194 C129.135,30.689 129.453,31.195 129.754,31.71 L133.99,29.054 C133.144,27.622 132.188,26.256 131.133,24.969 L131.843,24.259 C133.053,25.725 134.137,27.293 135.082,28.941 L135.339,29.351 L135.32,29.363 C136.319,31.164 137.152,33.056 137.801,35.012 C138.061,35.795 138.291,36.586 138.491,37.385 L143.268,35.875 C142.491,32.885 141.351,29.99 139.879,27.274 C137.888,23.599 135.297,20.253 132.24,17.403 C128.668,14.074 124.468,11.429 119.915,9.662 C117.22,8.615 114.407,7.876 111.545,7.463 C110.034,7.245 108.512,7.121 106.986,7.078 L106.919,7.066 L103.501,7.066 L103.501,12.066 L107,12.066 L107.116,12.084 C107.363,12.093 107.61,12.104 107.857,12.117 C108.066,12.129 108.276,12.142 108.485,12.157 C109.725,12.252 110.959,12.408 112.182,12.636 C114.571,13.083 116.91,13.792 119.144,14.747 C122.522,16.191 125.651,18.196 128.382,20.649 L127.674,21.358 C124.792,18.778 121.455,16.712 117.851,15.298 C115.587,14.41 113.223,13.779 110.817,13.421 C109.546,13.232 108.267,13.123 106.983,13.081 L106.906,13.066 L94.1277,13.066 L94.1277,12.066 L102.501,12.066 L102.501,7.066 L74.2593,7.066 L74.2593,12.066 L88.8737,12.066 L88.8737,13.066 L58.1277,13.066 L58.1277,12.066 L73.2593,12.066 L73.2593,7.066 Z M85.8408,6.066 L107,6.066 L107.095,6.081 C107.317,6.087 107.539,6.096 107.761,6.105 C108.009,6.116 108.257,6.13 108.505,6.144 C109.976,6.241 111.44,6.41 112.892,6.666 C115.725,7.166 118.502,7.978 121.157,9.083 C125.058,10.707 128.691,12.964 131.881,15.735 C135.53,18.905 138.595,22.741 140.87,27.005 C141.664,28.493 142.361,30.03 142.957,31.606 L147.732,30.096 C146.907,27.874 145.904,25.719 144.734,23.657 C142.358,19.468 139.3,15.671 135.716,12.453 C131.919,9.043 127.539,6.289 122.814,4.357 C119.505,3.004 116.034,2.056 112.497,1.538 C111.196,1.347 109.886,1.214 108.573,1.139 C107.812,1.096 107.05,1.074 106.288,1.067 C99.4721,1.045 92.6564,1.032 85.8408,1.024 L85.8408,6.066 Z M124.449,26.55 C123.974,26.089 123.482,25.646 122.975,25.222 C120.679,23.304 118.061,21.778 115.259,20.731 C113.362,20.022 111.383,19.535 109.374,19.279 C108.368,19.151 107.356,19.084 106.342,19.068 C101.837,19.027 97.3314,18.999 92.8258,18.981 L92.8258,24.037 C97.2635,24.043 101.701,24.052 106.139,24.066 C107.007,24.075 107.874,24.129 108.736,24.239 C110.367,24.446 111.973,24.843 113.513,25.417 C115.423,26.13 117.229,27.119 118.861,28.34 C119.581,28.878 120.266,29.462 120.914,30.085 L124.449,26.55 Z M45.6771,25.032 L45.6771,30.051 C64.8412,30.016 84.0054,29.941 103.169,30.049 L103.169,25.04 C92.1556,24.951 81.1417,24.942 70.1277,24.962 L70.1277,24.031 C77.3604,24.027 84.5931,24.027 91.8258,24.036 L91.8258,18.977 C79.7725,18.931 67.7189,18.954 55.6652,18.987 L55.6652,24.043 C58.7347,24.04 61.8042,24.037 64.8737,24.035 L64.8737,24.973 C58.3106,24.989 51.7474,25.012 45.1839,25.032 L45.6771,25.032 Z M25.1435,12.066 L39.3453,12.066 L39.3453,7.066 L25.1435,7.066 L25.1435,12.066 Z M31.5007,6.066 L59.0356,6.066 L59.0356,1.021 C49.8573,1.026 40.679,1.037 31.5007,1.046 L31.5007,6.066 Z M84.8408,1.023 C76.5724,1.015 68.304,1.015 60.0356,1.02 L60.0356,6.066 L84.8408,6.066 L84.8408,1.023 Z"/>
  </g>
</svg>
