<svg class="c-maze c-maze--t" xmlns="http://www.w3.org/2000/svg" width="152" height="152" viewBox="0 0 152 152">
  <g fill="none" fill-rule="evenodd" transform="translate(.477 .914)">
    <polyline class="c-maze__solution" stroke="#FF0055" points=".5 3.5 43.5 3.5 43.5 9.787 31.5 9.787 31.5 15.856 55.5 15.856 55.5 9.787 68.172 9.787 68.172 3.5 127.5 3.5 127.5 9.787 133.5 9.787 133.5 15.856 97.5 15.856 97.5 21.448 85.5 21.448 85.5 15.856 76 15.856 76 49.302 69.891 49.302 69.891 68.331 63.821 68.331 63.821 98.732 69.891 98.732 69.891 92.45 76 92.45 76 115.87 76 141.204 82.213 141.204 82.213 108 88.273 108 88.273 60 82.213 60 82.213 42 88.273 42 88.273 36 82.213 36 82.213 27.345 133.5 27.345 133.5 21.448 142.084 21.448 142.084 27.345 148.164 27.345 148.164 3.5 151.5 3.5" stroke-linejoin="round"/>
    <path  class="c-maze__walls" fill="#000000" d="M90.5566,151 L60.3773,151 C60.3251,150.9916 60.271,150.9914 60.2208,150.9749 C60.0678,150.9245 59.9465,150.8006 59.8992,150.6466 C59.8837,150.5961 59.8847,150.5419 59.8774,150.4896 L60.5,120.4948 L60.5,31 L1,31 C0.9485,30.992 0.8951,30.992 0.8455,30.976 C0.6944,30.926 0.5736,30.806 0.5245,30.655 C0.5084,30.605 0.5082,30.552 0.5,30.5 L0.5,6 L1.5,6 L1.5,30 L14.8956,30 L14.8956,25 L13.5,25 L13.5,24 L18.2715,24 L18.2715,25 L15.8956,25 L15.8956,30 L43.1,30 L43.1,25 L39.7661,25 L39.7661,24 L43.1,24 L43.1,23.982 L44.1,23.982 L44.1,24 L48.4243,24 L48.4243,25 L44.1,25 L44.1,30 L61,30 C61.0535,30.008 61.1058,30.009 61.1545,30.024 C61.3056,30.074 61.4264,30.194 61.4755,30.345 C61.4916,30.395 61.4918,30.448 61.5,30.5 L61.5,43.934 L66.5001,43.934 L66.5001,25 L63.541,25 L63.541,24 L67.0001,24 C67.0535,24.008 67.1059,24.009 67.1546,24.024 C67.3057,24.074 67.4265,24.194 67.4756,24.345 C67.4917,24.395 67.4919,24.448 67.5001,24.5 L67.5001,36.655 L72.5,36.655 L72.5,19 L67.1831,19 L67.1831,18 L68.5128,18 L68.5128,13 L57.4999,13 L57.4999,12 L122.313,12 L122.313,7 L97.5,7 L97.5,6 L122.313,6 L122.313,6 L123.313,6 L123.313,6 L125.5,6 L125.5,7 L123.313,7 L123.313,12 L131.5,12 L131.5,13 L92.1181,13 L92.1181,18 L95.5001,18 L95.5001,19 L87.5001,19 L87.5001,18 L91.1181,18 L91.1181,13 L69.5128,13 L69.5128,18 L73,18 C73.0529,18.008 73.1056,18.009 73.1545,18.025 C73.3057,18.074 73.4265,18.194 73.4756,18.346 C73.4917,18.395 73.4919,18.449 73.5,18.5 L73.5,47.302 L72.5,47.302 L72.5,37.762 L67.5001,37.762 L67.5001,66.3309 L66.5001,66.3309 L66.5001,45.041 L61.5,45.041 L61.5,105.8172 L66.5001,105.8172 L66.5001,100.7319 L67.5001,100.7319 L67.5001,112.624 L66.5001,112.624 L66.5001,106.9242 L61.5,106.9242 L61.5,120.5052 L61.4689,122.0038 L66.5001,122.0038 L66.5001,116.624 L67.5001,116.624 L67.5001,144 L69.1123,144 L69.1123,145 L67.0001,145 C66.9486,144.9919 66.8951,144.9917 66.8456,144.9755 C66.6944,144.9264 66.5736,144.8056 66.5245,144.6545 C66.5084,144.6049 66.5082,144.5515 66.5001,144.5 L66.5001,140.1435 L61.0924,140.1435 L60.8878,150 L90.0639,150 L90.3738,129.0321 L85.5,129.0321 L85.5,144.5 L85.4755,144.6545 C85.4519,144.701 85.4352,144.7517 85.4045,144.7939 C85.3425,144.8793 85.2549,144.9429 85.1545,144.9755 C85.1059,144.9914 85.0535,144.9918 85,145 L73.1123,145 L73.1123,144 L84.5,144 L84.5,110 L85.5,110 L85.5,115.327 L90.5,115.327 L90.5,51.7006 L85.5,51.7006 L85.5,58 L84.5,58 L84.5,44 L85.5,44 L85.5,50.594 L90.5,50.594 L90.5,32.321 L85.5,32.321 L85.5,34 L84.5,34 L84.5,29.345 L85.5,29.345 L85.5,31.214 L90.5,31.214 L90.5,30.5 C90.5082,30.448 90.5084,30.395 90.5245,30.345 C90.5736,30.194 90.6944,30.074 90.8455,30.024 C90.8951,30.008 90.9485,30.008 91,30 L137.353,30 L137.353,25 L135.5,25 L135.5,24 L140.084,24 L140.084,25 L138.311,25 L138.311,30 L150.5,30 L150.5,6 L151.5,6 L151.5,30.5 C151.492,30.552 151.492,30.605 151.476,30.655 C151.426,30.806 151.306,30.926 151.155,30.976 C151.106,30.991 151.053,30.992 151,31 L91.5,31 L91.5,120.5037 L91.0565,150.5074 C91.0477,150.5583 91.0468,150.6112 91.0302,150.6601 C90.9798,150.8092 90.8595,150.9278 90.7097,150.976 C90.6614,150.9915 90.6096,150.992 90.5566,151 L90.5566,151 Z M66.5001,123.1107 L61.4459,123.1107 L61.1153,139.0365 L66.5001,139.0365 L66.5001,123.1107 Z M73.5,138 L74.0001,138 L74.0001,139 L73,139 C72.9485,138.9918 72.8951,138.9916 72.8455,138.9755 C72.6944,138.9264 72.5736,138.8056 72.5245,138.6545 C72.5084,138.6049 72.5082,138.5515 72.5,138.5 L72.5,94.4498 L73.5,94.4498 L73.5,138 Z M53.4999,13 L33.4999,13 L33.4999,12 L51.3491,12 L51.3491,7 L45.4999,7 L45.4999,6 L46.0263,6 L46.0263,1 L0.5,1 L0.5,0.5 C0.5082,0.448 0.5084,0.395 0.5245,0.345 C0.5736,0.194 0.6944,0.074 0.8455,0.024 C0.8951,0.008 0.9485,0.008 1,0 L151,0 C151.052,0.008 151.103,0.016 151.155,0.024 C151.201,0.048 151.252,0.065 151.294,0.095 C151.379,0.158 151.443,0.245 151.476,0.345 C151.492,0.395 151.492,0.448 151.5,0.5 L151.5,1 L142.58,1 L142.58,6 L145,6 L145.155,6.024 C145.201,6.048 145.252,6.065 145.294,6.096 C145.379,6.158 145.443,6.245 145.476,6.346 C145.492,6.395 145.492,6.449 145.5,6.5 L145.5,24.5 C145.492,24.551 145.492,24.605 145.476,24.654 C145.426,24.806 145.306,24.926 145.155,24.975 C145.106,24.991 145.054,24.992 145,25 L144.084,25 L144.084,24 L144.5,24 L144.5,7 L137.366,7 L137.366,12 L139,12 L139.155,12.024 C139.201,12.048 139.252,12.065 139.294,12.095 C139.379,12.158 139.443,12.245 139.476,12.345 C139.492,12.395 139.492,12.448 139.5,12.5 L139.5,18.5 C139.492,18.552 139.492,18.605 139.476,18.655 C139.426,18.806 139.306,18.926 139.155,18.976 C139.106,18.991 139.053,18.992 139,19 L128,19 L128,24 L131.5,24 L131.5,25 L113.5,25 L113.5,24 L127,24 L127,19 L101.029,19 L101.029,24 L109.5,24 L109.5,25 L85.5,25 L85.5,25.345 L84.5,25.345 L84.5,25.107 L79.5,25.107 L79.5,64 L78.5,64 L78.5,62.2416 L73.5,62.2416 L73.5,76.3763 L78.5,76.3763 L78.5,68 L79.5,68 L79.5,71.4017 L84.5,71.4017 L84.5,62 L85.5,62 L85.5,106 L84.5,106 L84.5,100.8017 L79.5,100.8017 L79.5,138.5 L79.4755,138.6545 C79.4519,138.701 79.4352,138.7517 79.4045,138.7939 C79.3424,138.8793 79.2549,138.9429 79.1545,138.9755 C79.1056,138.9914 79.0529,138.9918 79,139 L78.0001,139 L78.0001,138 L78.5,138 L78.5,77.4833 L73.5,77.4833 L73.5,90.4498 L72.5,90.4498 L72.5,82.7672 L67.5001,82.7672 L67.5001,81.7672 L72.5,81.7672 L72.5,51.3018 L73.5,51.3018 L73.5,61.1346 L78.5,61.1346 L78.5,18.5 C78.5082,18.449 78.5084,18.395 78.5245,18.346 C78.5736,18.194 78.6944,18.074 78.8455,18.025 C78.8951,18.008 78.9485,18.008 79,18 L83.5001,18 L83.5001,19 L79.5,19 L79.5,24 L84.9997,24 L85,24 L100.029,24 L100.029,19 L99.5001,19 L99.5001,18 L138.5,18 L138.5,13 L135.5,13 L135.5,12 L136.366,12 L136.366,7 L129.5,7 L129.5,6 L141.58,6 L141.58,1 L64.1184,1 L64.1184,6 L66.1721,6 L66.1721,7 L52.3491,7 L52.3491,12 L53.4999,12 L53.4999,13 Z M90.5,116.434 L85.5,116.434 L85.5,127.9251 L90.3902,127.9251 L90.5,120.4963 L90.5,116.434 Z M79.5,99.6947 L84.5,99.6947 L84.5,88.0621 L79.5,88.0621 L79.5,99.6947 Z M66.5001,96.7319 L67.5001,96.7319 L67.5001,70.3309 L66.5001,70.3309 L66.5001,96.7319 Z M79.5,86.9551 L84.5,86.9551 L84.5,72.5087 L79.5,72.5087 L79.5,86.9551 Z M84.5,40 L85.5,40 L85.5,38 L84.5,38 L84.5,40 Z M27.2219,6 L41.4999,6 L41.4999,7 L27.2219,7 L27.2219,12 L29.4999,12 L29.4999,13 L13.5,13 L13.5,18 L63.1831,18 L63.1831,19 L57.3841,19 L57.3841,24 L59.541,24 L59.541,25 L52.4243,25 L52.4243,24 L56.3841,24 L56.3841,19 L25.0322,19 L25.0322,24 L35.7661,24 L35.7661,25 L22.2715,25 L22.2715,24 L24.0322,24 L24.0322,19 L13,19 L12.8455,18.976 C12.799,18.952 12.7483,18.935 12.7061,18.905 C12.6207,18.842 12.5571,18.755 12.5245,18.655 C12.5084,18.605 12.5082,18.552 12.5,18.5 L12.5,12.5 C12.5082,12.448 12.5084,12.395 12.5245,12.345 C12.5736,12.194 12.6944,12.074 12.8455,12.024 C12.8951,12.008 12.9485,12.008 13,12 L26.2219,12 L26.2219,7 L7.5,7 L7.5,24 L9.5,24 L9.5,25 L7,25 L6.8455,24.975 C6.7991,24.952 6.7483,24.935 6.7061,24.904 C6.6207,24.842 6.5571,24.755 6.5245,24.654 C6.5084,24.605 6.5082,24.551 6.5,24.5 L6.5,6.5 C6.5082,6.449 6.5084,6.395 6.5245,6.346 C6.5736,6.194 6.6944,6.074 6.8455,6.024 C6.8951,6.008 6.9485,6.008 7,6 L26.2219,6 L26.2219,5.975 L27.2219,5.975 L27.2219,6 Z M93.5,7 L84.1172,7 L84.1172,12 L83.1172,12 L83.1172,7 L70.1721,7 L70.1721,6 L93.5,6 L93.5,7 Z M63.1184,1 L47.0263,1 L47.0263,6 L51.3491,6 L51.3491,6 L52.3491,6 L52.3491,6 L63.1184,6 L63.1184,1 Z"/>
  </g>
</svg>
