<svg class="c-maze c-maze--i" xmlns="http://www.w3.org/2000/svg" width="151" height="151" viewBox="0 0 151 151">
  <g fill="none" fill-rule="evenodd">
    <path class="c-maze__walls" fill="#000000" d="M150.5,151 L0.5,151 C0.4485,150.9918 0.3951,150.9916 0.3455,150.9755 C0.1944,150.9264 0.0736,150.8056 0.0245,150.6545 C0.0084,150.6049 0.0082,150.5515 0,150.5 L0,120.5 C0.0082,120.4485 0.0084,120.3951 0.0245,120.3455 C0.0736,120.1944 0.1944,120.0736 0.3455,120.0245 C0.3951,120.0084 0.4485,120.0082 0.5,120 L23.0981,120 L23.0981,119.979 L24.0981,119.979 L24.0981,120 L60,120 L60,31 L0.5,31 C0.4485,30.992 0.3951,30.992 0.3455,30.976 C0.1944,30.926 0.0736,30.806 0.0245,30.655 C0.0084,30.605 0.0082,30.552 0,30.5 L0,5.983 L1,5.983 L1,30 L36.1997,30 L36.1997,25 L28.5,25 L28.5,24 L41.2767,24 L41.2767,25 L37.1997,25 L37.1997,30 L60.5,30 C60.5535,30.008 60.6058,30.009 60.6545,30.024 C60.8056,30.074 60.9264,30.194 60.9755,30.345 C60.9916,30.395 60.9918,30.448 61,30.5 L61,36 L65.9999,36 L65.9999,25 L61.6549,25 L61.6549,24 L66.4999,24 C66.5534,24.008 66.6058,24.009 66.6544,24.024 C66.8056,24.074 66.9264,24.194 66.9755,24.345 C66.9916,24.395 66.9918,24.448 66.9999,24.5 L66.9999,28.677 L72.0001,28.677 L72.0001,19 L49.4941,19 L49.4941,24 L57.6549,24 L57.6549,25 L45.2767,25 L45.2767,24 L48.4941,24 L48.4941,19 L17.8818,19 L17.8818,24 L24.5,24 L24.5,25 L6.4999,25 C6.4484,24.992 6.395,24.992 6.3454,24.976 C6.1943,24.926 6.0735,24.806 6.0244,24.654 C6.0083,24.605 6.0081,24.551 5.9999,24.5 L5.9999,6.5 C6.0081,6.449 6.0083,6.395 6.0244,6.346 C6.0735,6.194 6.1943,6.074 6.3454,6.025 C6.395,6.008 6.4484,6.008 6.4999,6 L29,6 L29,7 L19.126,7 L19.126,12 L20.6046,12 L20.6046,13 L13.0001,13 L13.0001,18 L68.5544,18 L68.5544,13 L65.2753,13 L65.2753,12 L94.8392,12 L94.8392,7 L92.0001,7 L92.0001,6 L123.139,6 L123.139,7 L109.001,7 L109.001,12 L110.204,12 L110.204,13 L106.869,13 L106.869,12 L107.954,12 L107.954,7 L95.8856,7 L95.8856,12 L98.1553,12 L98.1553,13 L82.4871,13 L82.4871,18 L84.6221,18 L84.6221,19 L79.0001,19 L79.0001,35 L78.0001,35 L78.0001,18.5 C78.0082,18.448 78.0084,18.395 78.0245,18.345 C78.0736,18.194 78.1944,18.074 78.3455,18.024 C78.3951,18.008 78.4486,18.008 78.5001,18 L81.4407,18 L81.4407,13 L69.6009,13 L69.6009,18 L72.5001,18 C72.5529,18.008 72.6056,18.009 72.6546,18.024 C72.8057,18.074 72.9265,18.194 72.9756,18.345 C72.9917,18.395 72.9919,18.448 73.0001,18.5 L73.0001,74.5 L78.0001,74.5 L78.0001,72.0542 L79.0001,72.0542 L79.0001,132 L107.454,132 L107.454,127 L104,127 L104,126 L119,126 L119,127 L108.5,127 L108.5,132 L131,132 L131,133 L78.5001,133 C78.4486,132.9918 78.3951,132.9916 78.3455,132.9755 C78.1944,132.9264 78.0736,132.8056 78.0245,132.6545 C78.0084,132.6049 78.0082,132.5515 78.0001,132.5 L78.0001,112.1159 L73.0001,112.1159 L73.0001,132.5 C72.9919,132.5515 72.9917,132.6049 72.9756,132.6545 C72.9265,132.8056 72.8057,132.9264 72.6546,132.9755 C72.6056,132.9914 72.5529,132.9918 72.5001,133 L51.3906,133 L51.3906,138 L81.3697,138 L81.3697,139 L12.5001,139 C12.4486,138.9919 12.3952,138.9917 12.3456,138.9756 C12.1945,138.9265 12.0736,138.8056 12.0245,138.6545 C12.0084,138.6049 12.0082,138.5515 12.0001,138.5 L12.0001,132.5 C12.0082,132.4485 12.0084,132.395 12.0245,132.3455 C12.0736,132.1943 12.1945,132.0735 12.3456,132.0244 C12.3952,132.0083 12.4486,132.0081 12.5001,132 L32.6523,132 L32.6523,127 L6.9999,127 L6.9999,133.1038 L5.9999,133.1038 L5.9999,126.5 C6.0081,126.4485 6.0083,126.3951 6.0244,126.3455 C6.0735,126.1944 6.1943,126.0736 6.3454,126.0245 C6.395,126.0083 6.4484,126.0081 6.4999,126 L11.3121,126 L11.3121,121 L1,121 L1,150 L9.8057,150 L9.8057,145 L6.4999,145 C6.4484,144.9919 6.395,144.9917 6.3454,144.9756 C6.1943,144.9265 6.0735,144.8057 6.0244,144.6545 C6.0083,144.6049 6.0081,144.5515 5.9999,144.5 L5.9999,137.1038 L6.9999,137.1038 L6.9999,144 L54.7232,144 L54.7232,145 L30.5,145 L30.5,150 L132.5,150 L132.5,145 L116,145 L116,144 L144,144 L144,138.7763 L145,138.7763 L145,144.5 C144.992,144.5515 144.992,144.6049 144.975,144.6545 C144.926,144.8057 144.806,144.9265 144.654,144.9756 C144.606,144.9914 144.553,144.9919 144.5,145 L133.546,145 L133.546,150 L150,150 L150,149.0469 L151,149.0469 L151,150.5 C150.992,150.5515 150.992,150.6049 150.976,150.6545 C150.926,150.8056 150.806,150.9264 150.655,150.9755 C150.606,150.9913 150.553,150.9918 150.5,151 L150.5,151 Z M10.8057,150 L29.4536,150 L29.4536,145 L10.8057,145 L10.8057,150 Z M62.2753,13 L23.6046,13 L23.6046,12 L54.5608,12 L54.5608,7 L32,7 L32,6 L34.009,6 L34.009,1 L26.0794,1 L26.0794,0.983 L0,0.983 L0,0.5 C0.0082,0.448 0.0084,0.395 0.0245,0.345 C0.0736,0.194 0.1944,0.074 0.3455,0.024 C0.3951,0.008 0.4485,0.008 0.5,0 L150.5,0 C150.552,0.008 150.603,0.016 150.655,0.024 C150.701,0.048 150.752,0.065 150.794,0.095 C150.879,0.158 150.943,0.245 150.976,0.345 C150.992,0.395 150.992,0.448 151,0.5 L151,30.5 C150.992,30.552 150.992,30.605 150.976,30.655 C150.926,30.806 150.806,30.926 150.655,30.976 C150.606,30.991 150.553,30.992 150.5,31 L91,31 L91,120 L150.5,120 C150.553,120.0082 150.606,120.0087 150.655,120.0245 C150.806,120.0736 150.926,120.1944 150.976,120.3455 C150.992,120.3951 150.992,120.4485 151,120.5 L151,146.0469 L150,146.0469 L150,121 L142.539,121 L142.539,126 L144.5,126 C144.553,126.0082 144.606,126.0086 144.654,126.0245 C144.806,126.0736 144.926,126.1944 144.975,126.3455 C144.992,126.3951 144.992,126.4485 145,126.5 L145,135.7763 L144,135.7763 L144,135.1378 L139,135.1378 L139,138.5 C138.992,138.5515 138.992,138.6049 138.976,138.6545 C138.927,138.8056 138.806,138.9265 138.655,138.9756 C138.606,138.9915 138.553,138.9919 138.5,139 L87.6571,139 L87.6571,144 L113,144 L113,145 L57.7232,145 L57.7232,144 L86.6107,144 L86.6107,139 L84.3697,139 L84.3697,138 L138,138 L138,133 L134,133 L134,132 L138.5,132 C138.553,132.0081 138.606,132.0085 138.655,132.0244 C138.806,132.0735 138.927,132.1943 138.976,132.3455 C138.992,132.395 138.992,132.4485 139,132.5 L139,134.1378 L144,134.1378 L144,127 L122,127 L122,126 L128.142,126 L128.142,121 L93.4375,121 L93.4375,126 L101,126 L101,127 L84.5001,127 C84.4486,126.9918 84.3952,126.9916 84.3456,126.9755 C84.1945,126.9264 84.0737,126.8056 84.0246,126.6545 C84.0085,126.6049 84.0083,126.5515 84.0001,126.5 L84.0001,122 L85.0001,122 L85.0001,126 L92.3911,126 L92.3911,121 L90.5,121 C90.4485,120.9918 90.3951,120.9916 90.3455,120.9755 C90.1944,120.9264 90.0736,120.8056 90.0245,120.6545 C90.0084,120.6049 90.0082,120.5515 90,120.5 L90,64.2105 L85.0001,64.2105 L85.0001,89 L84.0001,89 L84.0001,50.831 L79.0001,50.831 L79.0001,69.0542 L78.0001,69.0542 L78.0001,38 L79.0001,38 L79.0001,49.831 L84.0001,49.831 L84.0001,44 L85.0001,44 L85.0001,63.2105 L90,63.2105 L90,30.5 C90.0082,30.448 90.0084,30.395 90.0245,30.345 C90.0736,30.194 90.1944,30.074 90.3455,30.024 C90.3951,30.008 90.4485,30.008 90.5,30 L138.5,30 L138.5,25 L128.244,25 L128.244,24 L132.824,24 L132.824,19 L121.391,19 L121.391,18 L138,18 L138,13 L113.204,13 L113.204,12 L138.5,12 C138.552,12.008 138.603,12.016 138.655,12.024 C138.701,12.048 138.752,12.065 138.794,12.096 C138.879,12.158 138.943,12.245 138.976,12.346 C138.992,12.395 138.992,12.449 139,12.5 L139,18.5 C138.992,18.551 138.992,18.605 138.976,18.654 C138.927,18.806 138.806,18.926 138.655,18.976 C138.606,18.991 138.553,18.992 138.5,19 L133.87,19 L133.87,24 L144,24 L144,7 L139.281,7 L139.281,6 L144.5,6 L144.654,6.025 C144.701,6.048 144.752,6.065 144.794,6.096 C144.879,6.158 144.943,6.245 144.975,6.346 C144.992,6.395 144.992,6.449 145,6.5 L145,12.5 L150,12.5 L150,1 L130.933,1 L130.933,6 L135.281,6 L135.281,7 L126.139,7 L126.139,6 L129.886,6 L129.886,1 L68.395,1 L68.395,6 L89.0001,6 L89.0001,7 L55.6072,7 L55.6072,12 L62.2753,12 L62.2753,13 Z M13.0001,138 L21.8928,138 L21.8928,132.9999 L13.0001,132.9999 L13.0001,138 Z M22.9392,138 L50.3906,138 L50.3906,132.9999 L22.9392,132.9999 L22.9392,138 Z M72.0001,122.9781 L66.9999,122.9781 L66.9999,126.5 C66.9918,126.5515 66.9916,126.6049 66.9755,126.6545 C66.9264,126.8056 66.8056,126.9264 66.6544,126.9755 C66.6058,126.9913 66.5534,126.9918 66.4999,127 L33.6988,127 L33.6988,132 L72.0001,132 L72.0001,122.9781 Z M23.0981,121 L12.3585,121 L12.3585,126 L49.4941,126 L49.4941,121 L24.0981,121 L24.0981,125.979 L23.0981,125.979 L23.0981,121 Z M129.189,126 L141.4933,126 L141.4933,121 L129.189,121 L129.189,126 Z M78.0001,75.5 L73.0001,75.5 L73.0001,102.7725 L72.0001,102.7725 L72.0001,81.5546 L66.9999,81.5546 L66.9999,93.3278 L65.9999,93.3278 L65.9999,73 L61,73 L61,120.5 C60.9918,120.5515 60.9916,120.6049 60.9755,120.6545 C60.9264,120.8056 60.8056,120.9264 60.6545,120.9755 C60.6058,120.9913 60.5535,120.9918 60.5,121 L50.4941,121 L50.4941,126 L65.9999,126 L65.9999,97.3278 L66.9999,97.3278 L66.9999,121.9781 L72.0001,121.9781 L72.0001,106.7725 L73.0001,106.7725 L73.0001,111.1159 L78.0001,111.1159 L78.0001,75.5 Z M84.0001,119 L85.0001,119 L85.0001,92 L84.0001,92 L84.0001,119 Z M72.0001,29.677 L66.9999,29.677 L66.9999,42.55 L65.9999,42.55 L65.9999,37 L61,37 L61,72 L65.9999,72 L65.9999,46.55 L66.9999,46.55 L66.9999,80.5546 L72.0001,80.5546 L72.0001,29.677 Z M99.2451,25 L85.0001,25 L85.0001,41 L84.0001,41 L84.0001,24.5 C84.0083,24.448 84.0085,24.395 84.0246,24.345 C84.0737,24.194 84.1945,24.074 84.3456,24.024 C84.3952,24.008 84.4486,24.008 84.5001,24 L99.2451,24 L99.2451,25 Z M150,13.5 L145,13.5 L145,24.5 C144.992,24.551 144.992,24.605 144.975,24.654 C144.926,24.806 144.806,24.926 144.654,24.976 C144.606,24.991 144.553,24.992 144.5,25 L139.546,25 L139.546,30 L150,30 L150,13.5 Z M117.391,18 L117.391,19 L111.476,19 L111.476,24 L119.374,24 L119.374,23.989 L120.421,23.989 L120.421,24 L124.244,24 L124.244,25 L120.421,25 L120.421,29.989 L119.374,29.989 L119.374,25 L102.245,25 L102.245,24 L110.429,24 L110.429,19 L87.6221,19 L87.6221,18 L117.391,18 Z M18.0795,7 L6.9999,7 L6.9999,24 L16.8818,24 L16.8818,19 L12.5001,19 C12.4486,18.992 12.3952,18.992 12.3456,18.976 C12.1945,18.926 12.0736,18.806 12.0245,18.654 C12.0084,18.605 12.0082,18.551 12.0001,18.5 L12.0001,12.5 C12.0082,12.449 12.0084,12.395 12.0245,12.346 C12.0736,12.194 12.1945,12.074 12.3456,12.024 C12.3952,12.008 12.4486,12.008 12.5001,12 L18.0795,12 L18.0795,7 Z M101.155,13 L103.8687,13 L103.8687,12 L101.155,12 L101.155,13 Z M35.0555,6 L67.395,6 L67.395,1 L35.0555,1 L35.0555,6 Z"/>
    <polyline class="c-maze__solution" stroke="#FF002C" points=".5 3.655 30.5 3.655 30.5 9.643 22.105 9.643 22.105 15.809 63.775 15.809 63.775 9.643 90.5 9.643 90.5 3.655 124.639 3.655 124.639 9.643 111.704 9.643 111.704 15.809 105.369 15.809 105.369 9.643 99.655 9.643 99.655 15.809 86.122 15.809 86.122 21.159 100.745 21.159 100.745 28.081 90.5 28.081 87.228 28.081 87.228 42.5 80.927 42.5 80.927 36.5 75.5 36.5 75.5 70.554 80.927 70.554 80.927 90.5 87.228 90.5 87.228 120.5 80.927 120.5 80.927 129.213 102.5 129.213 102.5 123.404 120.5 123.404 120.5 129.213 132.5 129.213 132.5 135.421 82.87 135.421 82.87 141.804 56.223 141.804 56.223 147.547 114.5 147.547 114.5 141.804 141.71 141.804 141.71 137.276 147.393 137.276 147.393 147.547 151 147.547" stroke-linejoin="round"/>
  </g>
</svg>
