<svg class="c-maze c-maze--n" xmlns="http://www.w3.org/2000/svg" width="152" height="151" viewBox="0 0 152 151">
  <g fill="none" fill-rule="evenodd">
    <polyline class="c-maze__solution" stroke="#FF0055" points=".5 147.441 27.594 147.441 27.594 124.13 21.787 124.13 21.787 75.5 15.826 75.5 15.826 91 9.991 91 9.991 55 15.996 55 15.996 33.676 9.767 33.676 9.767 39.994 3.949 39.994 3.949 3.465 13.5 3.465 13.5 9.488 21.787 9.488 21.787 3.465 29.558 3.465 29.898 3.874 68.9 49 64.118 52.541 71.817 61 66.565 64.552 77.539 76.87 72.538 80.891 63.094 69.976 58.137 74.001 94.274 115.645 99.291 111.973 94.274 106.432 99.81 102.762 123.414 130.436 130.051 124.13 129.953 91 136.004 91 136.004 65.228 129.956 65.228 129.956 75.5 124.025 75.5 124.025 28.911 129.974 28.911 129.974 3.465 147.981 3.465 147.981 10 151.5 10" stroke-linejoin="round"/>
    <path class="c-maze__walls" fill="#000000" d="M11.4999,7 L7.5,7 L7.5,27.164 L12.5,27.164 L12.5,12.5 C12.5081,12.448 12.5083,12.395 12.5244,12.345 C12.5735,12.194 12.6943,12.074 12.8454,12.024 C12.895,12.008 12.9485,12.008 13,12 C17.3398,12 26.1813,12.013 26.1813,12.013 C26.3257,12.073 26.3265,12.073 26.4454,12.174 L35.0998,22.236 L38.5208,19.379 L27.9396,7.078 L27.868,7.07 L27.7206,7.003 L27.7178,7 L23.7865,7 L23.7865,6 L28,6 C28.0137,6.002 28.0275,6.004 28.0413,6.007 L28.0611,6.002 L28.2171,6.013 C28.3615,6.073 28.3624,6.073 28.4813,6.174 L44.142,24.381 L43.3591,25.004 L39.173,20.138 L35.752,22.994 L44.4252,33.077 L43.6502,33.71 L40.8767,30.485 L37.0382,33.69 L50.0314,48.796 L49.2564,49.429 L45.199,44.712 L40.9429,48.265 L57.7031,67.7506 L61.9592,64.1971 L51.8656,52.4622 L52.6407,51.8298 L54.7952,54.3347 L58.6338,51.1299 L46.2595,36.743 L47.0345,36.111 L48.8134,38.179 L52.2344,35.323 L45.9693,28.039 L46.7522,27.416 L65.4037,49.1 L64.5979,49.697 L52.8866,36.081 L49.4656,38.937 L68.3706,60.9164 L67.5367,61.4805 L59.286,51.8881 L55.4474,55.0929 L74.2477,76.9503 L73.4679,77.5772 L62.6114,64.9553 L58.3553,68.5088 L59.7422,70.1213 L58.9656,70.7519 L42.2992,51.3754 L38.4607,54.58 L120.602,150 L135.189,150 L135.189,145 L123,145 C122.949,144.9919 122.895,144.9917 122.846,144.9755 C122.745,144.9429 122.658,144.8793 122.596,144.7939 C122.565,144.7517 122.548,144.701 122.525,144.6545 L122.523,144.6439 L116.017,137.0807 L116.792,136.4483 L120.169,140.3736 L120.106,140.2983 L124.361,136.7458 L111.728,122.0581 L107.565,125.533 L106.925,124.7654 L111.075,121.2999 L98.0832,106.1951 L98.9418,105.6598 L126.759,138 L138.5,138 L138.5,126.8477 L133.5,126.8477 L133.5,132.5 C133.492,132.5515 133.492,132.6049 133.476,132.6545 C133.426,132.8056 133.306,132.9264 133.154,132.9755 C133.106,132.9915 133.053,132.9919 133,133 L129.283,133 C129.159,132.9821 129.12,132.9901 129.011,132.92 C128.971,132.8941 128.939,132.8574 128.904,132.8261 L126.609,130.1588 L127.335,129.4692 L129.512,132 L132.5,132 L132.5,92.9999 L133.5,92.9999 L133.5,97.4118 L138.5,97.4118 L138.5,61.1484 L133.5,61.1484 L133.5,63.2275 L132.5,63.2275 L132.5,51.7316 L127.5,51.7316 L127.5,73.5 L126.5,73.5 L126.5,30.911 L127.5,30.911 L127.5,33.852 L132.5,33.852 L132.5,12.5 C132.508,12.448 132.508,12.395 132.524,12.345 C132.574,12.194 132.694,12.074 132.845,12.024 C132.895,12.008 132.948,12.008 133,12 L139,12 L139.154,12.024 C139.201,12.048 139.247,12.072 139.294,12.095 C139.391,12.192 139.432,12.21 139.475,12.345 C139.492,12.395 139.492,12.448 139.5,12.5 L139.5,31.24 L144.5,31.24 L144.5,28.227 L145.5,28.227 L145.5,62.2378 L144.5,62.2378 L144.5,32.24 L139.5,32.24 L139.5,45 L138.5,45 L138.5,24.492 L133.5,24.492 L133.5,60.1484 L138.5,60.1484 L138.5,49 L139.5,49 L139.5,110.3147 L144.5,110.3147 L144.5,105.3969 L145.5,105.3969 L145.5,123.9912 L144.5,123.9912 L144.5,111.3147 L139.5,111.3147 L139.5,138.5 C139.492,138.5515 139.492,138.6049 139.475,138.6545 C139.426,138.8056 139.306,138.9264 139.154,138.9755 C139.106,138.9914 139.053,138.9918 139,139 L126.529,139 C126.405,138.9821 126.367,138.9901 126.258,138.9199 C126.218,138.8941 126.186,138.8573 126.15,138.826 L125.013,137.504 L120.757,141.0574 L123.288,144 L144.5,144 L144.5,127.9912 L145.5,127.9912 L145.5,135.9459 L150.5,135.9459 L150.5,94.168 L145.5,94.168 L145.5,101.3969 L144.5,101.3969 L144.5,66.2378 L145.5,66.2378 L145.5,73.6088 L150.5,73.6088 L150.5,46.308 L145.535,46.308 L145.535,45.308 L150.5,45.308 L150.5,21.749 L145.5,21.749 L145.5,24.227 L144.5,24.227 L144.5,7 L131.974,7 L131.974,6 L145,6 C145.052,6.008 145.105,6.008 145.155,6.024 C145.306,6.074 145.426,6.194 145.476,6.346 C145.492,6.395 145.492,6.449 145.5,6.5 L145.5,20.749 L150.5,20.749 L150.5,12 L151.5,12 L151.5,12 L151.5,150.5 C151.492,150.5515 151.492,150.6049 151.476,150.6545 C151.426,150.8056 151.306,150.9264 151.155,150.9755 C151.106,150.9913 151.054,150.9918 151,151 L120.372,151 C120.248,150.9821 120.21,150.9901 120.101,150.92 C120.061,150.8942 120.029,150.8575 119.993,150.8262 L31.5,48.027 L31.5,150.5 L31.4755,150.6545 C31.4519,150.701 31.4352,150.7517 31.4045,150.7939 C31.3424,150.8793 31.2549,150.9429 31.1545,150.9755 C31.1058,150.9913 31.0535,150.9918 31,151 L1,151 C0.9485,150.9918 0.8951,150.9916 0.8455,150.9755 C0.6944,150.9264 0.5736,150.8056 0.5245,150.6545 C0.5084,150.6049 0.5082,150.5515 0.5,150.5 L0.5,150 L30.5,150 L30.5,109.3488 L25.5,109.3488 L25.5,122.1299 L24.5,122.1299 L24.5,85 L25.5,85 L25.5,94.8054 L30.5,94.8054 L30.5,85 L30.8475,85 L30.8475,81 L30.5,81 L30.5,61.5394 L25.5,61.5394 L25.5,63.7037 L24.5,63.7037 L24.5,49.297 L25.5,49.297 L25.5,60.5394 L30.5,60.5394 L30.5,46.68 L30.5229,46.53 C30.5451,46.485 30.5607,46.436 30.5895,46.394 C30.6772,46.268 30.8209,46.188 30.9743,46.18 C31.0246,46.178 31.0746,46.19 31.1248,46.195 C31.1712,46.215 31.2176,46.235 31.264,46.255 L31.3789,46.353 L37.8082,53.8221 L41.647,50.617 L25.5,31.845 L25.5,45.297 L24.5,45.297 L24.5,36.492 L19.4999,36.492 L19.4999,70.4448 L24.5,70.4448 L24.5,67.7037 L25.5,67.7037 L25.5,81 L24.5,81 L24.5,71.4448 L19.4999,71.4448 L19.4999,73.5 L18.4999,73.5 L18.4999,64.2412 L13.5,64.2412 L13.5,88.9999 L12.5,88.9999 L12.5,57 L13.5,57 L13.5,63.2412 L18.4999,63.2412 L18.4999,29 L19.4999,29 L19.4999,35.492 L24.5,35.492 L24.5,30.496 L24.5229,30.347 C24.5451,30.302 24.5607,30.252 24.5895,30.211 C24.6772,30.085 24.821,30.005 24.9744,29.997 C25.0248,29.995 25.0748,30.007 25.125,30.012 C25.1714,30.032 25.2177,30.052 25.2641,30.072 L25.3791,30.17 L40.2907,47.507 L44.5469,43.953 L23.0836,19 L19.4999,19 L19.4999,25 L18.4999,25 L18.4999,22.258 L13.5,22.258 L13.5,31.676 L12.5,31.676 L12.5,28.164 L7.5,28.164 L7.5,37.994 L6.5,37.994 L6.5,6.5 C6.5082,6.449 6.5084,6.395 6.5245,6.346 C6.5736,6.194 6.6944,6.074 6.8455,6.024 C6.8951,6.008 6.9485,6.008 7,6 L11.4999,6 L11.4999,7 Z M150.5,136.9459 L145.5,136.9459 L145.5,144.5 C145.492,144.5515 145.492,144.6049 145.476,144.6545 C145.426,144.8056 145.306,144.9264 145.155,144.9755 C145.106,144.9914 145.054,144.9918 145,145 L136.189,145 L136.189,150 L150.5,150 L150.5,136.9459 Z M7.5,119 L7.5,119 L7.5,123 L7.5,123 L7.5,123.8888 L12.5,123.8888 L12.5,123 L13.5,123 L13.5,138 L18.4999,138 L18.4999,131.5964 L19.4999,131.5964 L19.4999,134.0554 L24.5,134.0554 L24.5,126.1299 L25.5,126.1299 L25.5,144.5 C25.4918,144.5515 25.4916,144.6049 25.4755,144.6545 C25.4264,144.8056 25.3056,144.9264 25.1545,144.9755 C25.1058,144.9913 25.0535,144.9918 25,145 L7.5,145 L7.5,145 L7,145 C6.9485,144.9919 6.8951,144.9916 6.8455,144.9755 C6.6944,144.9264 6.5736,144.8056 6.5245,144.6545 C6.5084,144.6049 6.5082,144.5515 6.5,144.5 L6.5,115 L7.5,115 L7.5,119 Z M1.5,145 L0.5,145 L0.5,0.5 C0.5082,0.448 0.5084,0.395 0.5245,0.345 C0.5736,0.194 0.6944,0.074 0.8455,0.024 C0.8951,0.008 0.9485,0.008 1,0 L31,0 C31.0515,0.008 31.103,0.016 31.1545,0.024 C31.201,0.048 31.2517,0.065 31.2939,0.095 C31.3793,0.158 31.4429,0.245 31.4755,0.345 C31.4916,0.395 31.4918,0.448 31.5,0.5 L31.5,0.51 L120.5,103.8981 L120.5,0.5 C120.508,0.448 120.508,0.395 120.524,0.345 C120.574,0.194 120.694,0.074 120.845,0.024 C120.895,0.008 120.948,0.008 121,0 L151,0 C151.052,0.008 151.105,0.008 151.155,0.024 C151.306,0.074 151.426,0.194 151.476,0.345 C151.492,0.395 151.492,0.448 151.5,0.5 L151.5,7 L150.5,7 L150.5,1 L121.5,1 L121.5,9.839 L126.5,9.839 L126.5,6.5 L126.525,6.346 C126.548,6.299 126.565,6.248 126.596,6.206 C126.658,6.121 126.745,6.057 126.846,6.024 C126.895,6.008 126.949,6.008 127,6 L127.974,6 L127.974,7 L127.5,7 L127.5,26.911 L126.5,26.911 L126.5,10.839 L121.5,10.839 L121.5,105.2454 C121.48,105.3762 121.489,105.4182 121.41,105.5308 C121.292,105.7007 121.076,105.7812 120.875,105.7295 C120.742,105.6953 120.722,105.6577 120.621,105.5716 L108.53,91.5259 L104.669,94.7498 L126.5,120.1312 L126.5,77.5 L127.5,77.5 L127.5,80.3644 L132.5,80.3644 L132.5,67.2275 L133.5,67.2275 L133.5,88.9999 L132.5,88.9999 L132.5,81.3644 L127.5,81.3644 L127.5,121.4792 C127.48,121.6101 127.489,121.6522 127.411,121.7648 C127.292,121.9346 127.075,122.0151 126.875,121.9634 C126.742,121.9291 126.722,121.8915 126.621,121.8053 L99.6833,90.4874 L100.458,89.8549 L104.016,93.9916 L107.878,90.7679 L88.1111,67.806 L84.2593,71.0218 L87.782,75.1173 L87.0069,75.7497 L73.6669,60.2405 C73.6265,60.1497 73.5767,60.0657 73.5037,59.9259 L73.2957,59.6538 L70.8658,56.984 L67.2132,52.7375 L68.0191,52.1408 L71.5249,56.2168 L75.3707,53.0059 L30.6211,1.022 L30.6063,1 L1.5,1 L1.5,50.815 L6.5,50.815 L6.5,41.994 L7.5,41.994 L7.5,46.721 L12.5,46.721 L12.5,35.676 L13.5,35.676 L13.5,53 L12.5,53 L12.5,47.721 L7.5,47.721 L7.5,106.634 L12.5,106.634 L12.5,92.9999 L13.5,92.9999 L13.5,113.2312 L18.4999,113.2312 L18.4999,77.5 L19.4999,77.5 L19.4999,127.5964 L18.4999,127.5964 L18.4999,114.2312 L13.5,114.2312 L13.5,119 L12.5,119 L12.5,107.634 L7.5,107.634 L7.5,111 L6.5,111 L6.5,97.5 L1.5,97.5 L1.5,145 Z M24.5,135.0554 L19.4999,135.0554 L19.4999,138.5 C19.4918,138.5515 19.4916,138.6049 19.4754,138.6545 C19.4263,138.8056 19.3055,138.9264 19.1544,138.9755 C19.1055,138.9914 19.0528,138.9918 18.9999,139 L16.3049,139 L16.3049,144 L24.5,144 L24.5,135.0554 Z M12.5,124.8888 L7.5,124.8888 L7.5,144 L15.3049,144 L15.3049,139 L13,139 C12.9485,138.9918 12.895,138.9916 12.8454,138.9755 C12.6943,138.9264 12.5735,138.8056 12.5244,138.6545 C12.5083,138.6049 12.5081,138.5515 12.5,138.5 L12.5,124.8888 Z M114.183,133.4147 L113.408,134.0471 L97.6108,115.681 L98.4202,115.0886 L114.183,133.4147 Z M80.7911,86.0911 L76.0777,80.6114 L76.8575,79.9845 L80.0473,83.6929 L83.8858,80.4881 L70.1626,64.5334 L70.9965,63.9694 L89.876,85.9188 L93.297,83.0626 L89.6162,78.7833 L90.3913,78.1509 L97.8491,86.8214 L97.0741,87.4538 L93.9492,83.8208 L90.5282,86.677 L124.724,126.4329 L123.998,127.1226 L98.2344,97.1699 L94.3959,100.3747 L96.3026,102.5915 L95.444,103.1268 L85.019,91.0065 L80.7628,94.56 L95.8038,112.0467 L94.9943,112.6391 L61.575,73.7856 L62.3517,73.155 L80.1107,93.8018 L84.3668,90.2483 L83.4003,89.1247 L84.1754,88.4923 L93.7437,99.6165 L97.5822,96.4117 L84.538,81.2464 L80.6995,84.4511 L81.5661,85.4587 L80.7911,86.0911 Z M133.5,125.8477 L138.5,125.8477 L138.5,98.4119 L133.5,98.4119 L133.5,125.8477 Z M25.5,108.3488 L30.5,108.3488 L30.5,95.8054 L25.5,95.8054 L25.5,108.3488 Z M1.5,96.5 L6.5,96.5 L6.5,51.815 L1.5,51.815 L1.5,96.5 Z M145.5,93.168 L150.5,93.168 L150.5,74.6088 L145.5,74.6088 L145.5,93.168 Z M72.1771,56.975 L83.6072,70.2636 L87.4587,67.048 L76.0232,53.7639 L72.1771,56.975 Z M127.5,50.732 L132.4999,50.732 L132.4999,34.8525 L127.5,34.8525 L127.5,50.732 Z M25.7736,13 L13.5,13 L13.5,21.258 L18.4999,21.258 L18.4999,18.5 L18.5244,18.346 C18.5481,18.299 18.5648,18.248 18.5954,18.206 C18.6575,18.121 18.745,18.057 18.8454,18.025 C18.895,18.008 18.9484,18.008 18.9999,18 L23.3131,18 C23.437,18.018 23.4758,18.01 23.5844,18.08 C23.6244,18.106 23.6562,18.143 23.6921,18.174 L36.386,32.932 L40.2246,29.727 L25.8657,13.033 L25.7915,13.012 L25.7736,13 Z M133.5,23.492 L138.5,23.492 L138.5,12.9998 L133.5,12.9998 L133.5,23.492 Z M15.4999,7 L19.7865,7 L19.7865,6 L15.4999,6 L15.4999,7 Z"/>
  </g>
</svg>
