<svg xmlns="http://www.w3.org/2000/svg" width="152" height="152" viewBox="0 0 152 152">
  <g fill="none" fill-rule="evenodd">
    <path stroke="#000000" d="M82.4014 78.594L82.4014 72.594M68.5236 83.8049L68.5236 79.094M31.0677 84.2949L31.0677 78.2949" stroke-linejoin="round"/>
    <path fill="#000000" d="M25.9013,58.7346 L25.9013,65.5939 C52.823,65.5939 79.7459,65.8494 106.666,65.5922 C107.494,65.5797 108.319,65.5221 109.139,65.4125 C110.65,65.2106 112.137,64.8391 113.564,64.3059 C116.156,63.3379 118.54,61.8389 120.542,59.9305 C123.117,57.476 125.038,54.3566 126.053,50.946 C126.347,49.957 126.565,48.946 126.706,47.925 L127.715,47.925 C127.481,49.696 127.027,51.4371 126.36,53.0964 C125.629,54.9153 124.647,56.6298 123.453,58.1831 L126.689,62.0221 C127.17,61.415 127.624,60.7869 128.051,60.1399 C129.468,57.9878 130.569,55.6285 131.304,53.1587 C131.812,51.4529 132.144,49.697 132.299,47.925 L133.303,47.925 C133.07,50.689 132.418,53.416 131.367,55.9849 C131.324,56.092 131.279,56.1988 131.234,56.3053 L135.779,58.3973 C136.013,57.8522 136.232,57.3006 136.436,56.7434 C137.471,53.9094 138.105,50.934 138.319,47.925 L139.321,47.925 C139.157,50.299 138.742,52.6553 138.078,54.9416 C137.226,57.873 135.968,60.6824 134.355,63.2737 C132.858,65.6785 131.054,67.889 129.005,69.8426 L131.726,74.0828 C133.633,72.4141 135.377,70.5589 136.924,68.5506 C139.777,64.8471 141.948,60.6243 143.289,56.1457 C144.09,53.4701 144.594,50.709 144.798,47.925 L145.8,47.925 C145.595,50.806 145.076,53.664 144.247,56.4326 C142.871,61.0279 140.643,65.3608 137.716,69.1609 C135.532,71.9968 132.965,74.5351 130.104,76.6864 C128.623,77.7992 127.065,78.8074 125.444,79.7018 L127.479,84.5136 C129.541,83.367 131.513,82.0567 133.368,80.5979 C137.291,77.5132 140.693,73.7724 143.387,69.5712 C145.676,66.0019 147.451,62.1059 148.636,58.0343 C149.594,54.7442 150.163,51.3453 150.341,47.925 L151.342,47.925 C151.085,53.0197 149.967,58.0635 148.036,62.786 C145.888,68.0386 142.747,72.8732 138.831,76.9799 C134.731,81.2796 129.795,84.7687 124.367,87.185 C120.606,88.8592 116.617,90.0152 112.544,90.6117 C111.021,90.8346 109.487,90.9804 107.95,91.0486 C107.268,91.0789 106.587,91.0918 105.902,91.094 L31.4014,91.094 L31.4014,150.594 L31.3769,150.7485 C31.3532,150.795 31.3365,150.8457 31.3059,150.8879 C31.2438,150.9733 31.1563,151.0369 31.0559,151.0695 C31.007,151.0854 30.9543,151.0858 30.9014,151.094 L0.9014,151.094 C0.8499,151.0858 0.7965,151.0856 0.7469,151.0695 C0.5958,151.0204 0.475,150.8996 0.4259,150.7485 C0.4097,150.6989 0.4095,150.6455 0.4014,150.594 L0.4014,150.094 L30.4014,150.094 L30.4014,90.594 L30.4259,90.4395 C30.4495,90.393 30.4662,90.3423 30.4969,90.3001 C30.5589,90.2147 30.6465,90.1511 30.7469,90.1185 C30.7965,90.1024 30.8499,90.1022 30.9014,90.094 C36.7347,90.094 42.568,90.0983 48.4014,90.1039 L48.4014,84.594 L41.6931,84.594 L41.6931,83.594 L55.9014,83.594 L55.9014,84.594 L49.4014,84.594 L49.4014,90.1049 C68.3307,90.1236 87.26,90.1541 106.189,90.0931 C107.987,90.0764 109.782,89.9631 111.566,89.7361 C114.851,89.3183 118.087,88.5312 121.195,87.3921 C123.047,86.7136 124.852,85.9106 126.596,84.9918 L124.559,80.1757 C123.298,80.8299 122.003,81.4163 120.679,81.9306 C117.989,82.9753 115.184,83.7211 112.331,84.151 C110.784,84.384 109.227,84.5201 107.664,84.5741 L107.497,84.5788 L107.401,84.594 L104.401,84.594 L104.401,83.594 L107.32,83.594 L107.387,83.5816 C107.631,83.5746 107.875,83.5662 108.118,83.5563 C109.558,83.4887 110.993,83.3499 112.417,83.126 C115.269,82.6776 118.068,81.9057 120.747,80.8284 C123.865,79.5741 126.816,77.907 129.503,75.8871 C129.997,75.5155 130.482,75.1321 130.958,74.7374 L128.259,70.5324 C127.38,71.3213 126.46,72.0643 125.503,72.7567 C124.293,73.6313 123.026,74.4244 121.711,75.1298 L121.211,74.2632 C123.698,72.9307 126.011,71.2749 128.073,69.3481 C129.829,67.7077 131.404,65.8746 132.759,63.8904 C133.751,62.4378 134.626,60.9042 135.37,59.3099 L130.827,57.2187 C129.564,59.9172 127.861,62.407 125.804,64.5635 C123.326,67.1619 120.343,69.2707 117.062,70.7312 C114.736,71.7668 112.266,72.4736 109.745,72.827 C108.472,73.0054 107.189,73.0896 105.902,73.094 L101.197,73.094 L101.197,72.1348 C102.879,72.1223 104.561,72.108 106.244,72.0918 C107.258,72.0757 108.269,72.009 109.275,71.8809 C111.284,71.6249 113.263,71.1376 115.161,70.4288 C117.813,69.4379 120.302,68.0173 122.507,66.2408 C123.788,65.2081 124.973,64.0569 126.043,62.807 L122.814,58.976 C122.567,59.2676 122.313,59.5528 122.051,59.8311 C120.126,61.8742 117.803,63.5357 115.247,64.6932 C113.434,65.5135 111.508,66.0777 109.54,66.3661 C108.546,66.5118 107.544,66.5839 106.54,66.5935 L106.402,66.5939 L31.3188,66.5939 L31.3188,72.1075 C34.5794,72.1143 37.84,72.1231 41.1006,72.1328 L41.1006,73.094 L18.9013,73.094 C18.8498,73.0859 18.7964,73.0857 18.7468,73.0696 C18.5957,73.0205 18.4749,72.8997 18.4258,72.7486 C18.4097,72.699 18.4095,72.6455 18.4013,72.594 L18.4013,64.8869 L19.4013,64.8869 L19.4013,72.094 C23.0405,72.094 26.6796,72.0984 30.3188,72.1055 L30.3188,66.5939 L25.4013,66.5939 L25.2468,66.5694 C25.2004,66.5458 25.1496,66.5291 25.1074,66.4984 C25.022,66.4364 24.9584,66.3489 24.9258,66.2484 C24.9097,66.1988 24.9095,66.1454 24.9013,66.0939 L24.9013,58.7346 L25.9013,58.7346 Z M1.4014,145.094 L0.4014,145.094 L0.4014,0.594 C0.4095,0.542 0.4097,0.489 0.4259,0.439 C0.475,0.288 0.5958,0.168 0.7469,0.118 C0.7965,0.102 0.8499,0.102 0.9014,0.094 C14.2978,0.094 27.6942,0.078 41.0906,0.064 L41.0906,0 L42.0906,0 L42.0906,0.063 C63.4589,0.041 84.8272,0.026 106.195,0.095 C108.034,0.112 109.869,0.228 111.693,0.46 C115.051,0.887 118.361,1.692 121.539,2.857 C126.02,4.499 130.235,6.855 133.986,9.804 C137.997,12.958 141.474,16.782 144.229,21.077 C146.57,24.727 148.385,28.711 149.596,32.874 C150.549,36.147 151.125,39.524 151.323,42.925 L150.322,42.925 C150.202,40.903 149.946,38.889 149.552,36.902 C149.018,34.213 148.234,31.575 147.212,29.032 C147.08,28.703 146.944,28.375 146.804,28.049 L146.981,28.514 L142.935,30.06 C142.981,30.17 143.026,30.281 143.07,30.392 C144.674,34.382 145.609,38.632 145.843,42.925 L144.841,42.925 C144.608,38.76 143.699,34.637 142.143,30.765 C140.469,26.602 138.062,22.745 135.068,19.405 L135.776,18.697 C138.562,21.796 140.854,25.33 142.541,29.14 L146.602,27.588 C144.563,22.993 141.74,18.752 138.291,15.092 C134.307,10.864 129.501,7.423 124.207,5.027 C120.542,3.369 116.652,2.216 112.675,1.607 C111.283,1.394 109.88,1.248 108.474,1.167 C108.072,1.144 107.669,1.127 107.266,1.115 L107.266,5.604 C107.739,5.614 108.212,5.632 108.684,5.659 C110.015,5.735 111.342,5.878 112.658,6.088 C116.103,6.637 119.472,7.648 122.651,9.086 C126.11,10.65 129.334,12.718 132.205,15.197 L131.496,15.906 C128.99,13.751 126.21,11.916 123.239,10.467 L120.542,15.459 C124.188,17.235 127.504,19.679 130.285,22.632 C131.543,23.968 132.691,25.406 133.715,26.929 L133.745,26.909 C133.926,27.189 134.108,27.468 134.289,27.748 L134.261,27.766 C135.332,29.465 136.251,31.26 137,33.125 C138.257,36.253 139.029,39.567 139.296,42.925 L138.292,42.925 C138.098,40.555 137.646,38.207 136.939,35.934 C136.105,33.252 134.917,30.686 133.422,28.311 L129.256,31.013 L128.711,30.174 L132.876,27.473 C132.394,26.756 131.883,26.058 131.345,25.381 C128.71,22.067 125.426,19.275 121.731,17.208 C120.224,16.365 118.65,15.644 117.028,15.052 L117.316,14.093 C118.1,14.377 118.874,14.691 119.635,15.034 L122.333,10.04 C122.302,10.025 122.27,10.011 122.239,9.997 C119.141,8.596 115.858,7.611 112.5,7.075 C111.218,6.871 109.924,6.731 108.627,6.657 C107.969,6.62 107.31,6.601 106.65,6.595 L106.378,6.594 L106.266,6.594 L106.266,6.594 C104.528,6.588 102.79,6.584 101.052,6.58 L101.052,5.58 C102.79,5.584 104.528,5.588 106.266,5.594 L106.266,1.096 C106.24,1.095 106.215,1.095 106.189,1.095 C84.823,1.026 63.4568,1.041 42.0906,1.063 L42.0906,5.571 C53.2003,5.56 64.31,5.549 75.4196,5.551 L75.4196,6.551 C62.7463,6.549 50.0729,6.563 37.3995,6.576 L37.3995,5.575 L41.0906,5.572 L41.0906,1.064 C27.8609,1.078 14.6311,1.094 1.4014,1.094 L1.4014,145.094 Z M25.4013,144.594 L7.4014,144.594 C7.3499,144.5858 7.2965,144.5856 7.2469,144.5695 C7.0958,144.5204 6.975,144.3996 6.9259,144.2485 C6.9097,144.1989 6.9095,144.1455 6.9014,144.094 L6.9014,131.594 L7.9014,131.594 L7.9014,143.594 L24.9013,143.594 L24.9013,114.094 L25.9013,114.094 L25.9013,144.094 L25.8769,144.2485 C25.8532,144.295 25.8365,144.3457 25.8058,144.3879 C25.7438,144.4733 25.6563,144.5369 25.5558,144.5695 C25.5069,144.5854 25.4543,144.5858 25.4013,144.594 L25.4013,144.594 Z M18.9013,139.094 L12.9013,139.094 C12.8498,139.0859 12.7964,139.0857 12.7468,139.0696 C12.5957,139.0205 12.4749,138.8996 12.4258,138.7485 C12.4097,138.6989 12.4095,138.6455 12.4013,138.594 L12.4013,107.2357 L13.4013,107.2357 L13.4013,138.094 L18.4013,138.094 L18.4013,126.594 L19.4013,126.594 L19.4013,138.594 C19.3931,138.6455 19.3929,138.6989 19.3768,138.7485 C19.3277,138.8996 19.2069,139.0205 19.0558,139.0696 C19.0066,139.0855 18.9537,139.0859 18.9013,139.094 L18.9013,139.094 Z M6.9014,126.594 L7.9014,126.594 L7.9014,82.9894 L6.9014,82.9894 L6.9014,126.594 Z M18.4013,121.594 L19.4013,121.594 L19.4013,95.0958 L18.4013,95.0958 L18.4013,121.594 Z M36.6931,84.594 L25.9013,84.594 L25.9013,109.094 L24.9013,109.094 L24.9013,84.094 L24.9258,83.9395 C24.9495,83.893 24.9662,83.8423 24.9968,83.8001 C25.0589,83.7147 25.1464,83.6511 25.2468,83.6184 C25.2964,83.6023 25.3498,83.6021 25.4013,83.594 L36.6931,83.594 L36.6931,84.594 Z M12.4013,102.2358 L13.4013,102.2358 L13.4013,45.094 L12.4013,45.094 L12.4013,102.2358 Z M19.4013,90.0959 L18.4013,90.0959 L18.4013,78.594 L18.4258,78.4395 C18.4494,78.393 18.4661,78.3423 18.4968,78.3001 C18.5589,78.2147 18.6464,78.1511 18.7468,78.1185 C18.7964,78.1024 18.8498,78.1022 18.9013,78.094 C48.0062,78.094 77.1116,78.2677 106.216,78.0925 C107.458,78.0764 108.697,77.9991 109.93,77.8464 C112.202,77.5647 114.444,77.0414 116.606,76.2869 L117.115,77.1681 C114.765,78.0043 112.32,78.573 109.843,78.8641 C108.57,79.0136 107.291,79.0861 106.01,79.0938 L105.902,79.094 L19.4013,79.094 L19.4013,90.0959 Z M60.9014,84.594 L99.4014,84.594 L99.4014,83.594 L60.9014,83.594 L60.9014,84.594 Z M6.9014,77.9894 L7.9014,77.9894 L7.9014,19.3478 L6.9014,19.3478 L6.9014,77.9894 Z M96.1967,73.094 L46.1006,73.094 L46.1006,72.1482 C50.1001,72.1607 54.0995,72.1737 58.099,72.1849 L58.099,66.594 L59.099,66.594 L59.099,72.1877 C71.4651,72.2213 83.8311,72.2361 96.1967,72.1673 L96.1967,73.094 Z M105.903,61.094 L30.9014,61.094 C30.8499,61.0858 30.7965,61.0856 30.7469,61.0695 C30.5958,61.0204 30.475,60.8996 30.4259,60.7485 C30.4097,60.6989 30.4095,60.6455 30.4014,60.594 L30.4014,30.594 C30.4095,30.542 30.4097,30.489 30.4259,30.439 C30.475,30.288 30.5958,30.168 30.7469,30.118 C30.7965,30.102 30.8499,30.102 30.9014,30.094 C55.9681,30.094 81.0354,29.929 106.102,30.095 C106.695,30.106 107.286,30.144 107.874,30.219 C109.144,30.38 110.392,30.7 111.583,31.17 C113.093,31.766 114.507,32.602 115.759,33.636 C116.955,34.623 118.003,35.79 118.856,37.085 C119.72,38.398 120.383,39.841 120.813,41.353 C121.26,42.922 121.452,44.562 121.39,46.192 C121.324,47.931 120.964,49.656 120.325,51.2752 C119.616,53.0745 118.564,54.7347 117.247,56.1503 C115.847,57.6543 114.15,58.8761 112.278,59.7234 C110.883,60.3552 109.394,60.7757 107.874,60.9693 C107.22,61.0526 106.564,61.0895 105.903,61.094 L105.903,61.094 Z M31.4014,31.094 L31.4014,60.094 C56.2972,60.094 81.1936,60.2583 106.089,60.0927 C106.644,60.0823 107.197,60.0475 107.748,59.9773 C108.935,59.826 110.103,59.527 111.216,59.0876 C112.629,58.5299 113.951,57.7477 115.122,56.781 C116.242,55.8572 117.222,54.765 118.021,53.5527 C118.829,52.3253 119.449,50.975 119.851,49.562 C120.269,48.093 120.448,46.559 120.391,45.033 C120.329,43.407 119.992,41.794 119.395,40.28 C118.731,38.596 117.747,37.043 116.515,35.719 C115.246,34.355 113.714,33.238 112.026,32.449 C110.785,31.869 109.462,31.468 108.109,31.261 C107.439,31.159 106.766,31.108 106.089,31.095 C81.1936,30.93 56.2972,31.094 31.4014,31.094 L31.4014,31.094 Z M18.4013,59.8869 L19.4013,59.8869 L19.4013,35.594 L18.4013,35.594 L18.4013,59.8869 Z M19.4013,30.594 L18.4013,30.594 L18.4013,18.594 C18.4095,18.542 18.4097,18.489 18.4258,18.439 C18.4749,18.288 18.5957,18.168 18.7468,18.118 C18.7964,18.102 18.8498,18.102 18.9013,18.094 C44.9013,18.094 70.9015,18.016 96.9014,18.07 L96.9014,19.025 C75.1242,18.898 53.3457,19.034 31.5677,19.08 L31.5677,23.593 C38.0956,23.59 44.6235,23.583 51.1514,23.576 L51.1514,24.577 C44.6235,24.584 38.0956,24.59 31.5677,24.593 L31.5677,24.594 L30.5677,24.594 L30.5677,24.593 C29.0122,24.594 27.4568,24.594 25.9013,24.594 L25.9013,53.7823 L24.9013,53.7823 L24.9013,24.094 C24.9095,24.042 24.9097,23.989 24.9258,23.939 C24.9749,23.788 25.0957,23.668 25.2468,23.618 C25.2964,23.602 25.3498,23.602 25.4013,23.594 C27.1234,23.594 28.8455,23.594 30.5677,23.593 L30.5677,19.082 C26.8455,19.089 23.1234,19.094 19.4013,19.094 L19.4013,30.594 Z M127.792,42.925 L126.787,42.925 C126.589,41.054 126.135,39.212 125.432,37.464 C124.479,35.091 123.076,32.904 121.323,31.043 C119.488,29.095 117.273,27.509 114.834,26.406 C113.146,25.642 111.354,25.111 109.522,24.83 C108.533,24.679 107.534,24.604 106.534,24.594 C100.156,24.574 93.7789,24.563 87.4014,24.559 L87.4014,23.559 C93.781,23.563 100.161,23.574 106.54,23.594 C107.454,23.603 108.366,23.663 109.272,23.784 C110.856,23.996 112.416,24.386 113.914,24.945 C114.806,25.278 115.675,25.671 116.514,26.119 L119.261,22.709 C118.511,22.269 117.739,21.867 116.949,21.503 C114.774,20.503 112.463,19.802 110.1,19.425 C108.824,19.222 107.536,19.117 106.244,19.096 C104.796,19.082 103.349,19.07 101.901,19.059 L101.901,18.082 C103.294,18.086 104.687,18.09 106.079,18.095 C107.248,18.106 108.414,18.183 109.573,18.337 C111.6,18.608 113.595,19.107 115.511,19.822 C118.109,20.792 120.555,22.16 122.746,23.861 C125.006,25.617 126.992,27.724 128.609,30.085 C130.214,32.429 131.452,35.021 132.263,37.744 C132.766,39.434 133.103,41.171 133.272,42.925 L132.268,42.925 C132.025,40.514 131.453,38.137 130.562,35.882 C129.347,32.806 127.553,29.966 125.299,27.546 C123.763,25.897 122.019,24.446 120.121,23.235 L117.396,26.618 C118.039,27.002 118.663,27.419 119.262,27.868 C120.64,28.899 121.893,30.094 122.989,31.421 C124.815,33.632 126.193,36.208 127.011,38.957 C127.396,40.251 127.657,41.582 127.792,42.925 L127.792,42.925 Z M12.4013,40.094 L13.4013,40.094 L13.4013,27.2323 L12.4013,27.2323 L12.4013,40.094 Z M82.4014,24.557 C73.6514,24.555 64.9014,24.563 56.1513,24.572 L56.1513,23.571 C64.9014,23.562 73.6514,23.554 82.4014,23.556 L82.4014,24.557 Z M13.4013,22.232 L12.4013,22.232 L12.4013,12.594 C12.4095,12.543 12.4097,12.489 12.4258,12.44 C12.4749,12.288 12.5957,12.168 12.7468,12.118 C12.7964,12.102 12.8498,12.102 12.9013,12.094 C28.7347,12.094 44.568,12.068 60.4013,12.056 L60.4013,6.594 L61.4013,6.594 L61.4013,12.055 C70.1746,12.049 78.9479,12.047 87.7212,12.056 L87.7212,6.594 L88.7212,6.594 L88.7212,12.057 C94.5201,12.064 100.319,12.076 106.118,12.095 C107.752,12.11 109.384,12.233 111,12.48 C111.502,12.557 112.002,12.645 112.5,12.745 L112.212,13.707 C110.135,13.298 108.018,13.094 105.901,13.094 L13.4013,13.094 L13.4013,22.232 Z M7.9014,14.348 L6.9014,14.348 L6.9014,6.094 C6.9095,6.042 6.9097,5.989 6.9259,5.939 C6.975,5.788 7.0958,5.668 7.2469,5.618 C7.2965,5.602 7.3499,5.602 7.4014,5.594 C15.7341,5.594 24.0668,5.588 32.3995,5.58 L32.3995,6.58 C28.3691,6.584 24.3386,6.588 20.3082,6.59 L20.3082,11.957 L19.3082,11.957 L19.3082,6.591 C15.5059,6.593 11.7037,6.594 7.9014,6.594 L7.9014,14.348 Z M80.4196,5.552 C85.6304,5.555 90.8411,5.56 96.0519,5.569 L96.0519,6.569 C90.8411,6.56 85.6304,6.555 80.4196,6.552 L80.4196,5.552 Z"/>
    <path stroke="#FF0055" d="M0.9014,147.594 L27.9014,147.594 L27.9014,111.9865 L21.8574,111.9865 L21.8574,124.2791 L15.6747,124.2791 L15.6747,104.4397 L9.9013,104.4397 L9.9013,129.0871 L3.9014,129.0871 L3.9014,80.81 L9.9013,80.81 L9.9013,42.394 L15.6747,42.394 L15.6747,32.513 L21.8574,32.513 L21.8574,56.2417 L27.9014,56.2417 L27.9014,27.324 L54.9014,27.324 L54.9014,21.188 L84.9014,21.188 L84.9014,27.324 L88.7528,27.327 L99.6154,27.332 L102.901,27.334 C102.901,27.334 106.351,27.318 106.657,27.334 C116.204,27.816 123.808,35.72 123.808,45.386 C123.808,45.42 151.342,45.394 151.342,45.394"/>
  </g>
</svg>
