<svg class="c-maze c-maze--s" xmlns="http://www.w3.org/2000/svg" width="152" height="152" viewBox="0 0 152 152">
  <g fill="none" fill-rule="evenodd" transform="translate(-.117 .914)">
    <path class="c-maze__solution" stroke="#FF0055" d="M0.5,147.5 L54.5,147.5 L54.5,141.4991 L30.5,141.4991 L30.5,135.5009 L90.5,135.5009 L90.5,129.5009 L78.5,129.5009 L78.5,123.5009 L105.969,123.5009 C115.945,123.5009 124.045,115.4015 124.045,105.4254 C124.045,95.7594 116.441,87.8553 106.894,87.3732 C106.588,87.3577 90.5,87.3732 90.5,87.3732 L78.5,87.5009 L78.5,75.5 L48.5,75.5009 L48.5,69.5009 L60.5,69.5009 L60.5,63.5009 L46.0459,63.5009 C36.1115,63.5009 28.0459,55.4354 28.0459,45.501 C28.0459,35.566 36.1115,27.501 46.0459,27.501 L66.5,27.501 L66.5,21.749 L78.5,21.749 L78.5,15.501 L66.5,15.501 L66.5,9.501 L132.5,9.501 L132.5,15.501 L132.5,21.749 L120.5,21.749 L120.5,27.501 L147.999,27.501 L147.999,3.501 L151.5,3.501" stroke-linecap="round" stroke-linejoin="round"/>
    <path class="c-maze__walls" fill="#000000" d="M100.106,145 C100.156,146.6348 100.156,148.2718 100.105,149.9065 C100.102,149.9443 100.095,149.9812 100.085,150.0168 C102.152,150.0116 104.22,150.0057 106.288,149.9991 C106.86,149.9935 107.432,149.981 108.004,149.9555 C109.228,149.9009 110.45,149.7966 111.665,149.642 C115.039,149.2128 118.363,148.3931 121.549,147.2032 C125.251,145.8207 128.765,143.9394 131.971,141.6293 C133.712,140.3746 135.362,138.9943 136.906,137.5036 L137.561,136.9633 L137.513,136.9055 C139.004,135.4097 140.39,133.8088 141.655,132.1171 C144.728,128.009 147.084,123.3731 148.579,118.4651 C148.703,118.0581 148.821,117.6494 148.932,117.2392 C147.316,116.8299 145.711,116.3721 144.122,115.867 C143.556,117.95 142.818,119.9863 141.917,121.9492 C140.039,126.0403 137.455,129.8012 134.317,133.0282 L133.677,132.2518 C135.003,130.8802 136.228,129.4108 137.337,127.859 C139.746,124.49 141.607,120.735 142.82,116.7748 C144.033,112.8149 144.592,108.6618 144.488,104.5222 C144.47,103.8318 144.435,103.142 144.38,102.4538 C144.329,102.4805 144.275,102.4976 144.218,102.5086 C142.619,102.7139 141.014,102.873 139.406,102.9856 C139.489,104.1038 139.517,105.2263 139.489,106.3479 C139.462,107.4698 139.377,108.5899 139.237,109.7028 L138.249,109.5469 C138.449,107.933 138.53,106.3039 138.49,104.6768 C138.399,101.0237 137.692,97.3902 136.394,93.9739 C134.956,90.1894 132.802,86.6872 130.084,83.6874 C127.643,80.9925 124.75,78.7121 121.561,76.9666 L121.993,76.0626 C123.103,76.6672 124.179,77.3346 125.213,78.0609 C127.529,79.687 129.639,81.6051 131.477,83.7566 C131.589,83.8876 131.7,84.0194 131.81,84.1521 L131.811,84.1508 C132.999,82.9803 134.223,81.8448 135.479,80.7474 C135.153,80.3589 134.819,79.9767 134.477,79.6013 C133.777,78.8318 133.046,78.091 132.286,77.3808 L132.926,76.6099 C133.323,76.9796 133.712,77.3576 134.093,77.7434 C136.834,80.5181 139.164,83.6954 140.98,87.1472 C141.245,87.651 141.5,88.1606 141.742,88.6754 L140.855,89.1394 C139.578,86.4282 137.983,83.8686 136.115,81.5246 C134.94,82.6791 133.731,83.7995 132.49,84.8826 C132.471,84.8976 132.451,84.9115 132.43,84.9242 C134.938,88.1416 136.855,91.813 138.046,95.7163 C138.67,97.758 139.093,99.8579 139.315,101.9793 C140.912,101.7784 142.515,101.6236 144.12,101.5152 C144.181,101.5148 144.241,101.5225 144.297,101.54 C144.028,98.9206 143.491,96.3304 142.693,93.8206 L143.592,93.3505 C144.099,94.919 144.508,96.5193 144.814,98.1398 C145.594,102.2699 145.71,106.5269 145.161,110.6938 C144.974,112.1094 144.711,113.5141 144.371,114.9003 C144.373,114.9006 144.375,114.901 144.377,114.9014 C145.993,115.3099 147.597,115.7669 149.185,116.2712 C150.198,112.1954 150.627,107.9788 150.467,103.7806 C150.274,98.6986 149.207,93.6576 147.311,88.9381 C145.242,83.7866 142.197,79.0386 138.39,74.9983 C134.406,70.7698 129.6,67.3289 124.306,64.9336 C120.641,63.2751 116.75,62.1217 112.774,61.5133 C111.288,61.2859 109.79,61.1342 108.289,61.058 C108.188,61.0528 108.086,61.0481 107.985,61.0437 C107.989,61.0661 107.993,61.089 107.995,61.1122 C108.053,62.7577 108.063,64.4057 108.024,66.0518 C109.818,66.1467 111.604,66.3537 113.37,66.6876 C116.889,67.3531 120.314,68.5027 123.522,70.0951 C125.456,71.0552 127.31,72.1749 129.062,73.4372 L128.421,74.2087 C126.544,72.8606 124.547,71.6802 122.457,70.6899 C119.297,69.1919 115.932,68.1304 112.484,67.5447 C110.666,67.2358 108.829,67.0641 106.986,67.0125 L106.918,67 C92.1124,67 77.3059,67.1012 62.5,67.0819 L62.5,66 L107,66 L107.018,66.0028 C106.963,64.3753 106.956,62.7454 106.997,61.1174 C107,61.0815 107.006,61.0464 107.015,61.0124 C106.772,61.007 106.53,61.0033 106.288,61.0009 C86.1913,60.9362 66.0948,61 45.9983,61 C45.339,60.9956 44.6817,60.9587 44.0273,60.8753 C42.5077,60.6817 41.019,60.2607 39.6231,59.6295 C37.8077,58.8086 36.1568,57.6334 34.782,56.1918 C33.4481,54.7931 32.3779,53.1459 31.6465,51.3566 C30.9891,49.749 30.6083,48.032 30.5202,46.297 C30.4374,44.665 30.6098,43.021 31.0372,41.443 C31.4649,39.865 32.1457,38.357 33.0451,36.991 C33.9326,35.644 35.0301,34.437 36.2864,33.424 C37.5022,32.445 38.8658,31.65 40.3182,31.076 C41.5695,30.583 42.8851,30.254 44.2215,30.101 C44.8119,30.034 45.4043,30.004 45.9983,30 L87.5391,30 C87.4964,28.316 87.4991,26.63 87.547,24.946 C87.5492,24.92 87.5525,24.894 87.5573,24.868 C81.2048,24.859 74.8524,24.858 68.5,24.873 L68.5,24 L90.9684,24 L90.9684,24.874 C90.1573,24.872 89.3461,24.871 88.535,24.869 C88.5397,24.895 88.5428,24.92 88.5451,24.946 C88.593,26.63 88.5956,28.316 88.5529,30 L112.27,30 C112.268,29.987 112.266,29.974 112.265,29.961 C112.215,28.286 112.215,26.607 112.265,24.932 C111.374,24.929 110.483,24.926 109.593,24.923 L109.593,24 L118.5,24 L118.5,24.951 C116.755,24.946 115.009,24.94 113.264,24.935 C113.314,26.609 113.314,28.287 113.263,29.961 C113.262,29.974 113.261,29.987 113.259,30 L150.5,30 L150.5,6.002 L151.5,6.002 L151.5,30.5 C151.492,30.552 151.492,30.605 151.476,30.655 C151.426,30.806 151.306,30.926 151.155,30.976 C151.105,30.992 151.052,30.992 151,31 C115.938,31 80.8743,30.768 45.8127,31.001 C45.2577,31.012 44.7045,31.047 44.1537,31.117 C42.9664,31.268 41.7987,31.567 40.6854,32.007 C38.5151,32.863 36.5645,34.25 35.0373,36.014 C33.6949,37.564 32.6853,39.395 32.1002,41.361 C31.6475,42.882 31.4503,44.475 31.5107,46.06 C31.5726,47.687 31.9086,49.3 32.5062,50.814 C33.1705,52.4972 34.1534,54.0508 35.3863,55.375 C36.6561,56.7388 38.1869,57.8557 39.8752,58.6448 C41.1159,59.2245 42.4388,59.6255 43.7925,59.8327 C44.4618,59.9351 45.1359,59.986 45.8127,59.9987 C65.9727,60.1329 86.1337,59.936 106.294,60.0009 C106.976,60.0076 107.658,60.0246 108.34,60.0592 C109.398,60.113 110.455,60.2033 111.507,60.3306 C115.055,60.7598 118.55,61.6096 121.899,62.8598 C126.197,64.4646 130.245,66.7283 133.869,69.5419 C137.682,72.5024 141.022,76.0679 143.725,80.0678 C146.305,83.8859 148.301,88.0947 149.616,92.5117 C151.064,97.3767 151.68,102.4786 151.455,107.5487 C151.224,112.7394 150.101,117.8818 148.135,122.6916 C145.988,127.9441 142.846,132.779 138.93,136.8853 C134.83,141.185 129.894,144.6742 124.466,147.0905 C120.618,148.8038 116.531,149.9729 112.359,150.558 C110.834,150.772 109.297,150.9078 107.758,150.9666 C107.172,150.9889 106.587,150.9981 106.001,151 L1,151 C0.9485,150.9918 0.8951,150.9916 0.8455,150.9755 C0.6944,150.9264 0.5736,150.8056 0.5245,150.6545 C0.5084,150.6049 0.5082,150.5515 0.5,150.5 L0.5,150.0022 L10.2892,150.0022 C32.0262,150.0123 53.7631,150.0549 75.5,150.0487 L75.5,150.0595 L80.5,150.0595 L80.5,150.0464 C86.7093,150.0424 92.9186,150.034 99.1279,150.0191 C99.1173,149.9827 99.1108,149.9451 99.1072,149.9065 C99.0568,148.2718 99.0565,146.6347 99.1063,145 L80.5,145 L80.5,144 L103.573,144 C103.568,143.9923 103.564,143.9844 103.56,143.9765 C103.525,143.912 103.508,143.8432 103.501,143.7707 C103.452,142.1813 103.45,140.5896 103.496,139 L68.5139,139 C68.5586,140.6661 68.5548,142.3342 68.5023,144 L75.5,144 L75.5,145 L56.5,145 L56.5,144 L67.4976,144 C67.4451,142.3342 67.4413,140.6661 67.486,139 L32.5,139 L32.5,138 L106.906,138 L106.983,137.9854 C107.188,137.9786 107.393,137.9706 107.598,137.9613 C108.809,137.8983 110.015,137.7771 111.212,137.5836 C113.61,137.196 115.963,136.5381 118.213,135.6238 C120.478,134.7034 122.638,133.5254 124.639,132.1207 C126.886,130.5427 128.933,128.6815 130.717,126.5938 C133.605,123.2138 135.792,119.2447 137.09,114.9918 C137.145,114.812 137.198,114.6318 137.25,114.4512 L138.244,114.6079 C137.98,115.545 137.675,116.4707 137.328,117.3814 C135.87,121.2199 133.697,124.7794 130.958,127.8375 C128.051,131.0812 124.517,133.7541 120.598,135.6557 C117.87,136.9793 114.964,137.9279 111.98,138.4667 C110.409,138.7504 108.821,138.9157 107.226,138.9779 L107.117,138.9815 L107,139 L104.504,139 C104.55,140.5896 104.548,142.1813 104.499,143.7707 C104.491,143.8528 104.469,143.9306 104.427,144 L106.918,144 L106.986,143.9875 C107.23,143.9807 107.473,143.9723 107.717,143.9623 C108.066,143.9459 108.415,143.9253 108.763,143.9003 L108.968,144.889 C108.345,144.9355 107.72,144.9674 107.096,144.9849 L107,145 L100.106,145 Z M52.5,145 L7,145 L6.8455,144.9755 C6.799,144.9519 6.7483,144.9352 6.7061,144.9045 C6.6207,144.8424 6.5571,144.7549 6.5245,144.6545 C6.5084,144.6049 6.5082,144.5515 6.5,144.5 L6.5,126.5 C6.5082,126.4485 6.5084,126.3951 6.5245,126.3455 C6.5736,126.1944 6.6944,126.0736 6.8455,126.0245 C6.8951,126.0084 6.9485,126.0082 7,126 C11.9681,126 16.9362,126.0071 21.9043,126.018 L21.9043,127 L7.5,127 L7.5,144 L18.5,144 L18.5,144.0595 L23.5,144.0595 L23.5,144 L52.5,144 L52.5,145 Z M38.5,126.0644 C39.2015,126.0666 39.9029,126.0688 40.6043,126.0711 L40.6043,127 L34.8676,127 C34.9118,128.6784 34.9067,130.3587 34.8523,132.0366 C52.735,132.0873 70.6178,132.1664 88.5,132.1078 L88.5,133 L13.5,133 L13.5,138 L18.5,138 L18.5,139 L13,139 C12.9485,138.9918 12.8951,138.9916 12.8455,138.9755 C12.6944,138.9264 12.5736,138.8056 12.5245,138.6545 C12.5084,138.6049 12.5082,138.5515 12.5,138.5 L12.5,132.5 C12.5082,132.4485 12.5084,132.3951 12.5245,132.3455 C12.5736,132.1944 12.6944,132.0736 12.8455,132.0245 C12.8951,132.0084 12.9485,132.0082 13,132 C15.9681,132 18.9362,132.0026 21.9043,132.0072 L21.9043,132.0298 L26.9043,132.0298 L26.9043,132.0165 C29.2204,132.0215 31.5365,132.0274 33.8526,132.0338 C33.7983,130.3568 33.7932,128.6774 33.8374,127 L26.9043,127 L26.9043,126.0302 C29.3046,126.0365 31.7048,126.0435 34.1051,126.0508 C34.1325,126.0351 34.5743,126.0359 34.6026,126.0523 C35.5684,126.0553 36.5342,126.0583 37.5,126.0613 L37.5,121 L26.9043,121 L26.9043,120.9702 L21.9043,120.9702 L21.9043,121 L1.5,121 L1.5,145 L0.5,145 L0.5,120.5 C0.5082,120.4485 0.5084,120.3951 0.5245,120.3455 C0.5736,120.1944 0.6944,120.0736 0.8455,120.0245 C0.8951,120.0084 0.9485,120.0082 1,120 C36.0624,120 71.1257,120.2321 106.187,119.9987 C106.742,119.9883 107.295,119.9534 107.846,119.8834 C109.033,119.7325 110.201,119.433 111.314,118.9937 C113.866,117.9867 116.105,116.2475 117.722,114.0325 C118.69,112.7053 119.431,111.2139 119.9,109.6392 C120.353,108.1186 120.55,106.5247 120.489,104.9395 C120.427,103.313 120.091,101.7 119.494,100.1856 C118.83,98.5024 117.846,96.9488 116.613,95.6248 C115.344,94.261 113.813,93.1438 112.125,92.355 C110.884,91.7754 109.561,91.3744 108.207,91.1672 C107.538,91.0648 106.864,91.0143 106.187,91.0011 C86.0273,90.8792 65.8663,91.064 45.706,90.9991 C45.1231,90.9936 44.5404,90.9807 43.958,90.9549 C42.6166,90.8954 41.2778,90.7774 39.9468,90.6001 C36.6979,90.1674 33.4973,89.3811 30.4183,88.2576 C26.123,86.6904 22.0712,84.4671 18.4365,81.6936 C14.1069,78.3898 10.3761,74.3117 7.4732,69.7035 C5.2194,66.1257 3.4683,62.2339 2.2912,58.1724 C0.9089,53.4029 0.3253,48.411 0.5454,43.451 C0.7757,38.26 1.8991,33.118 3.8652,28.308 C6.0122,23.055 9.1551,18.221 13.07,14.114 C17.169,9.814 22.1064,6.325 27.5342,3.909 C31.2952,2.235 35.2844,1.079 39.3578,0.482 C40.8803,0.259 42.4141,0.114 43.9513,0.045 C44.6336,0.015 45.3162,0.002 45.9992,0 L151,0 C151.052,0.008 151.103,0.016 151.155,0.024 C151.201,0.048 151.252,0.065 151.294,0.095 C151.379,0.158 151.443,0.245 151.476,0.345 C151.492,0.395 151.492,0.448 151.5,0.5 L151.5,1 L141.576,1 L141.576,1 L95.7176,1 C95.7678,2.666 95.7682,4.334 95.7188,6 L141.576,6 L141.576,6.002 L145.013,6.002 L145.155,6.024 C145.201,6.048 145.252,6.065 145.294,6.095 C145.379,6.158 145.443,6.245 145.476,6.345 C145.492,6.395 145.492,6.448 145.5,6.5 L145.5,24.5 C145.492,24.552 145.492,24.605 145.476,24.655 C145.426,24.806 145.306,24.926 145.155,24.976 C145.105,24.992 145.052,24.992 145,25 C137.5,25 130,24.984 122.5,24.962 L122.5,24 L144.5,24 L144.5,7 C111.584,7 78.6672,6.894 45.7511,7.001 C45.5029,7.003 45.2549,7.007 45.0068,7.013 C44.3502,7.031 43.6942,7.062 43.0392,7.112 C41.8284,7.205 40.622,7.354 39.4252,7.56 C37.5086,7.89 35.618,8.368 33.7743,8.985 L33.331,8.079 C35.6538,7.293 38.0501,6.724 40.4795,6.383 C41.637,6.221 42.8017,6.111 43.969,6.051 C44.6453,6.017 45.322,6.002 45.9992,6 L94.7182,6 C94.6688,4.334 94.6692,2.666 94.7194,1 L46.0008,1 C45.3314,1.002 44.6634,1.015 43.9956,1.044 C42.492,1.111 40.9919,1.254 39.5027,1.472 C35.5195,2.055 31.6186,3.185 27.9408,4.823 C24.9407,6.158 22.0938,7.829 19.4614,9.788 C19.4809,9.797 19.4999,9.808 19.5182,9.819 C19.5631,9.847 19.6012,9.882 19.6368,9.921 C20.639,11.163 21.6061,12.435 22.5356,13.732 C24.4705,12.3 26.5349,11.045 28.6979,9.987 L29.1373,10.885 C24.7532,13.027 20.7886,16.009 17.5065,19.619 C16.553,20.668 15.6579,21.77 14.8258,22.916 C16.0744,24.032 17.2902,25.185 18.4697,26.373 C18.4756,26.38 18.4814,26.387 18.4871,26.394 C19.2716,25.266 20.1252,24.186 21.0425,23.163 C23.9488,19.919 27.4831,17.246 31.4019,15.344 C34.1295,14.021 37.0362,13.072 40.0198,12.533 C41.5907,12.25 43.1793,12.084 44.7741,12.022 L44.8833,12.018 L45,12 L47.1207,12 L47.1207,13 L45.0939,13 L45.0167,13.015 C44.8116,13.021 44.6067,13.029 44.4017,13.039 C44.1981,13.049 43.9947,13.061 43.7912,13.074 C42.5861,13.159 41.3866,13.303 40.1975,13.517 C37.8124,13.948 35.4778,14.649 33.2489,15.601 C30.4737,16.786 27.8677,18.364 25.5258,20.267 C23.3455,22.038 21.395,24.092 19.738,26.36 C17.6065,29.279 15.9653,32.551 14.9101,36.008 C14.2159,38.282 13.7774,40.631 13.5961,43 L12.5924,43 C12.8305,39.794 13.5292,36.625 14.6715,33.619 C15.5279,31.365 16.6302,29.208 17.9491,27.191 C17.8883,27.17 17.8338,27.138 17.7828,27.098 C16.5702,26.015 15.3885,24.896 14.241,23.745 C13.0335,25.504 11.9715,27.363 11.0708,29.298 L10.1739,28.854 C11.9902,24.958 14.4459,21.366 17.4124,18.253 C18.7532,16.846 20.1976,15.539 21.7292,14.345 C20.7306,13.099 19.7672,11.825 18.8415,10.524 C18.8135,10.479 18.7902,10.433 18.7752,10.382 C18.7692,10.362 18.7645,10.341 18.7611,10.32 C16.9971,11.688 15.3349,13.187 13.7939,14.804 C9.9649,18.821 6.8908,23.549 4.7908,28.686 C4.5233,29.341 4.2718,30.002 4.0363,30.668 L3.7469,31.253 L3.8217,31.29 C2.4966,35.226 1.7285,39.345 1.5444,43.496 C1.3292,48.347 1.8997,53.229 3.2516,57.894 C4.4027,61.8659 6.1153,65.6717 8.3193,69.1705 C9.3114,70.7453 10.4023,72.2569 11.5825,73.6949 C11.5847,73.6331 11.5981,73.5714 11.6226,73.5135 C11.6433,73.4646 11.6717,73.4216 11.7047,73.3801 C12.7634,72.2044 13.8559,71.0581 14.9795,69.9442 C14.4536,69.2781 13.949,68.5951 13.4669,67.8964 C11.0678,64.4195 9.2307,60.559 8.0549,56.5013 C6.8551,52.3606 6.3483,48.028 6.5394,43.722 C6.6929,40.262 7.3031,36.828 8.3504,33.53 L9.2569,33.979 C8.1902,37.385 7.6035,40.937 7.5126,44.507 C7.4059,48.696 7.978,52.8979 9.2189,56.9011 C10.687,61.6377 13.0857,66.0731 16.2317,69.9053 C18.3257,72.4562 20.7469,74.7375 23.4176,76.6764 C23.5071,76.7414 23.597,76.806 23.6871,76.8702 L22.9704,77.5869 C22.4756,77.2311 21.9891,76.8639 21.5113,76.4856 C19.3579,74.7805 17.3828,72.8521 15.626,70.7416 C14.5903,71.8801 13.5228,72.9905 12.426,74.0701 C12.3861,74.1048 12.3443,74.1352 12.2965,74.158 C12.2053,74.2015 12.1034,74.2165 12.0056,74.2028 C14.1003,76.6798 16.463,78.9298 19.0432,80.8986 C22.5978,83.611 26.5604,85.7855 30.7611,87.3182 C33.772,88.4168 36.9018,89.1857 40.0788,89.6089 C41.947,89.8577 43.8279,89.9815 45.7123,89.9991 C65.8086,90.0638 85.9051,90 106.002,90 C106.595,90.0036 107.188,90.0335 107.778,90.1011 C109.115,90.2541 110.43,90.5825 111.681,91.0759 C113.076,91.626 114.389,92.3814 115.568,93.3079 C116.787,94.2665 117.862,95.4073 118.746,96.6818 C119.712,98.0754 120.448,99.6274 120.912,101.2588 C121.358,102.8287 121.551,104.4679 121.489,106.0985 C121.422,107.8375 121.063,109.5621 120.424,111.1812 C119.715,112.9801 118.663,114.6418 117.345,116.0566 C115.945,117.56 114.249,118.7823 112.377,119.6296 C110.981,120.2611 109.492,120.6823 107.972,120.8754 C107.318,120.9586 106.662,120.9956 106.002,121 L64.9816,121 C64.9869,121.0269 64.9905,121.0543 64.9929,121.0821 C65.0412,122.7648 65.0434,124.4498 64.9994,126.1327 C68.833,126.1379 72.6665,126.1398 76.5,126.1371 L76.5,127 L45.6043,127 L45.6043,126.0866 C51.7323,126.1053 57.8602,126.1222 63.9881,126.1313 C63.9442,124.4489 63.9464,122.7644 63.9948,121.0821 C63.9972,121.0543 64.0007,121.0269 64.006,121 L38.5,121 L38.5,126.0644 Z M129.972,135.6185 L130.608,136.3893 C127.984,138.4821 125.096,140.2424 122.027,141.6082 C119.433,142.7627 116.713,143.6339 113.931,144.202 L113.729,143.2226 C115.988,142.7611 118.206,142.0949 120.346,141.2344 C123.805,139.8431 127.056,137.9423 129.972,135.6185 L129.972,135.6185 Z M23.5,139 L28.5,139 L28.5,138 L23.5,138 L23.5,139 Z M106.001,127 L80.5,127 L80.5,126.1326 C89.0884,126.1193 97.6768,126.0799 106.265,125.9983 C106.963,125.9874 107.66,125.9458 108.353,125.8663 C109.995,125.6779 111.614,125.2905 113.163,124.712 C115.138,123.974 116.995,122.928 118.653,121.6254 C120.428,120.2308 121.972,118.5423 123.202,116.6493 C124.289,114.9767 125.13,113.1462 125.687,111.2309 C126.314,109.075 126.578,106.8189 126.48,104.5763 C126.378,102.2801 125.888,100.0033 125.031,97.8705 C124.077,95.4975 122.675,93.3097 120.921,91.4487 C119.085,89.5007 116.872,87.9157 114.433,86.8118 C112.745,86.0477 110.952,85.5164 109.121,85.2364 C108.131,85.0851 107.133,85.01 106.132,85.0005 C97.5883,84.9709 89.0441,84.9781 80.5,84.9913 L80.5,83.9407 C86.4787,83.9259 92.4574,83.9217 98.4359,83.9481 C98.415,83.9169 98.3975,83.8832 98.3838,83.8478 C98.3647,83.7983 98.3552,83.7475 98.3502,83.6949 C98.2948,82.1309 98.2833,80.5647 98.3156,79 L80.5,79 L80.5,77.9204 C83.6547,77.9159 86.8093,77.9148 89.964,77.9192 C89.9066,76.291 89.8967,74.6604 89.9344,73.0316 C76.7894,73.071 63.6444,73.1235 50.5,73.0363 L50.5,72 L107,72 L107.117,72.0185 C107.364,72.0267 107.61,72.0379 107.857,72.0508 C109.034,72.1189 110.207,72.241 111.372,72.4292 C113.436,72.763 115.469,73.2912 117.435,74.0056 L117.001,74.9125 C115.249,74.2815 113.442,73.802 111.606,73.4826 C110.078,73.2165 108.534,73.0662 106.983,73.0146 L106.906,73 C101.584,73 96.2628,73.0129 90.9411,73.0286 C90.9959,74.6584 91.0031,76.2906 90.9626,77.9207 C96.0934,77.9298 101.224,77.954 106.355,78.0023 C106.591,78.0059 106.826,78.012 107.062,78.0202 C108.05,78.061 109.036,78.148 110.014,78.2915 C112.145,78.6038 114.238,79.168 116.236,79.9711 C118.908,81.0453 121.405,82.5424 123.616,84.3885 C125.856,86.2593 127.796,88.4864 129.342,90.9618 C130.732,93.187 131.8,95.6106 132.502,98.1384 C133.293,100.9871 133.614,103.9617 133.464,106.9138 C133.308,109.9914 132.632,113.0381 131.466,115.8906 C130.168,119.0656 128.269,121.9864 125.903,124.4691 C123.426,127.068 120.441,129.1775 117.161,130.637 C114.835,131.672 112.365,132.3797 109.843,132.7329 C108.57,132.9112 107.287,132.9956 106.001,133 L92.5,133 L92.5,132.0922 C97.1142,132.0719 101.728,132.0413 106.342,131.9978 C107.468,131.9796 108.59,131.8987 109.705,131.7426 C111.654,131.4696 113.572,130.9775 115.411,130.2775 C117.56,129.4595 119.6,128.3592 121.466,127.0153 C123.618,125.4652 125.536,123.5921 127.137,121.4777 C129.046,118.9566 130.501,116.096 131.403,113.0647 C132.246,110.2311 132.605,107.2593 132.474,104.3063 C132.339,101.2835 131.686,98.2885 130.54,95.4876 C129.289,92.4277 127.459,89.6133 125.179,87.2205 C122.792,84.7157 119.916,82.6834 116.754,81.2763 C114.564,80.3014 112.241,79.6286 109.869,79.2809 C108.587,79.093 107.294,79.0044 105.999,79 L99.3335,79 C99.3822,80.5625 99.3872,82.127 99.3483,83.6896 C99.3438,83.7423 99.3348,83.7932 99.3163,83.8428 C99.3018,83.8816 99.2827,83.9182 99.2597,83.9519 C101.599,83.9633 103.938,83.9796 106.278,84.0018 C107.009,84.0132 107.74,84.0569 108.467,84.1402 C110.19,84.3378 111.888,84.7443 113.513,85.3513 C115.584,86.1252 117.532,87.2221 119.271,88.5882 C121.132,90.0505 122.751,91.8209 124.04,93.8059 C125.18,95.5604 126.062,97.4806 126.647,99.4897 C127.305,101.7503 127.582,104.1161 127.479,106.4677 C127.37,108.9207 126.838,111.3507 125.91,113.6237 C124.896,116.106 123.41,118.3901 121.56,120.3308 C119.624,122.3625 117.29,124.0116 114.726,125.1528 C112.989,125.9255 111.151,126.4649 109.272,126.7522 C108.189,126.9177 107.097,126.9962 106.001,127 L106.001,127 Z M67.4968,83.9815 C67.4534,82.4818 67.4504,80.9805 67.4877,79.4808 C67.4967,79.3747 67.5302,79.2755 67.5957,79.1915 C67.6276,79.1504 67.6658,79.1145 67.7085,79.0853 C67.8919,78.9597 68.1416,78.9741 68.3101,79.12 C68.3572,79.1607 68.3967,79.2104 68.4261,79.2657 C68.4611,79.3313 68.4787,79.4016 68.4858,79.4756 C68.5389,80.9754 68.5517,82.4774 68.524,83.9781 C71.1827,83.9693 73.8413,83.9599 76.5,83.9518 L76.5,84.9974 C66.2482,85.0142 55.9964,85.0325 45.7448,84.9992 C44.0724,84.9835 42.4032,84.8736 40.7451,84.6529 C37.8451,84.2667 34.9895,83.5556 32.2472,82.5361 C30.5564,81.9075 28.9099,81.1613 27.3218,80.3066 L28.0608,79.5676 C29.5264,80.3417 31.0419,81.0211 32.5957,81.5988 C35.2681,82.5923 38.0509,83.2853 40.8771,83.6616 C42.4935,83.8768 44.1207,83.9839 45.7511,83.9992 C52.9995,84.0228 60.2481,84.005 67.4968,83.9815 L67.4968,83.9815 Z M76.5,79 L45,79 L44.8824,78.9814 C44.6358,78.9732 44.3895,78.9619 44.1432,78.9492 C42.8972,78.8771 41.6562,78.7439 40.4251,78.5372 C37.9576,78.1231 35.5375,77.4301 33.2253,76.4742 C31.1408,75.6124 29.1446,74.5388 27.2758,73.2759 C24.9851,71.728 22.8873,69.8966 21.0425,67.8376 C17.8082,64.2278 15.369,59.9201 13.9537,55.2837 C13.2306,52.915 12.7766,50.468 12.5933,48 L13.5951,48 C13.8361,51.1494 14.5359,54.2612 15.6761,57.2081 C16.5093,59.3614 17.5744,61.4222 18.8436,63.3489 C20.205,62.3884 21.5959,61.4681 23.0122,60.5907 C22.8919,60.4079 22.7738,60.2238 22.6579,60.0382 C21.2682,57.813 20.2002,55.3894 19.4982,52.8616 C18.707,50.013 18.3863,47.038 18.5358,44.086 C18.6916,41.009 19.3677,37.962 20.5339,35.109 C21.832,31.934 23.7309,29.014 26.0969,26.531 C28.5737,23.932 31.5586,21.823 34.839,20.363 C37.1654,19.328 39.6349,18.62 42.1566,18.267 C43.4302,18.089 44.7135,18.004 45.9992,18 L76.5,18 L76.5,18.872 C66.2188,18.872 55.9381,18.905 45.6576,19.002 C44.5324,19.02 43.41,19.101 42.2953,19.257 C40.3463,19.53 38.4282,20.022 36.5889,20.723 C34.4398,21.54 32.4,22.641 30.5343,23.985 C30.2365,24.199 29.9432,24.42 29.6547,24.646 C30.6238,25.859 31.5596,27.099 32.4598,28.364 C32.5162,28.454 32.549,28.553 32.547,28.66 C32.5465,28.687 32.5438,28.714 32.539,28.74 C33.9844,27.579 35.5785,26.602 37.2737,25.848 C39.0098,25.075 40.8493,24.535 42.7279,24.248 C43.8109,24.083 44.9039,24.004 45.9991,24 L64.5,24 L64.5,24.884 C58.2449,24.905 51.9899,24.942 45.735,25.002 C44.994,25.013 44.2542,25.06 43.5183,25.149 C41.9198,25.343 40.3453,25.725 38.8367,26.289 C37.0541,26.954 35.367,27.871 33.8366,29.002 C32.4835,30.001 31.2542,31.167 30.1831,32.464 C28.4424,34.572 27.1284,37.028 26.3487,39.648 C25.6963,41.841 25.4199,44.139 25.5205,46.424 C25.6216,48.72 26.1118,50.997 26.9689,53.1295 C27.9382,55.5416 29.371,57.7588 31.1635,59.6408 C33.0092,61.5786 35.2357,63.151 37.6807,64.2391 C39.4144,65.0106 41.255,65.5375 43.1342,65.8009 C44.0839,65.9341 45.041,65.9966 46.0009,66 L58.5,66 L58.5,67.0743 C54.2408,67.0624 49.9816,67.0387 45.7224,66.9982 C45.5381,66.9953 45.354,66.9906 45.1698,66.9842 C44.3072,66.9488 43.4475,66.8672 42.5948,66.7313 C41.0642,66.4872 39.5613,66.076 38.1195,65.5075 C35.9847,64.6657 33.988,63.4767 32.2275,62.0051 C32.2092,61.9898 32.1908,61.9744 32.1725,61.959 C31.0843,63.1625 29.9606,64.3349 28.8043,65.473 C28.7676,65.505 28.7294,65.5332 28.6863,65.5553 C29.6461,66.3843 30.6648,67.1447 31.7325,67.8289 L31.232,68.6959 C30.2399,68.0628 29.2881,67.3664 28.3844,66.6115 C26.5677,65.0942 24.948,63.3426 23.576,61.4142 L23.5721,61.4174 C22.2118,62.378 20.8221,63.2984 19.4068,64.176 C20.1775,65.2714 21.0155,66.3196 21.9155,67.3125 C24.754,70.444 28.1993,73.017 32.0129,74.8401 C34.7278,76.1379 37.623,77.0529 40.5907,77.551 C42.0549,77.7968 43.5331,77.9359 45.0167,77.9853 L45.0945,78 C55.563,78 66.0318,77.9501 76.5,77.9275 L76.5,79 Z M46.5,72 L46.5,73.0053 L45.645,72.9977 C45.4092,72.9941 45.1736,72.988 44.938,72.9798 C43.9497,72.939 42.9645,72.852 41.9856,72.7085 C39.8553,72.3962 37.7621,71.832 35.7643,71.0289 C35.7357,71.0174 35.7071,71.0059 35.6785,70.9942 L36.1836,70.1195 C38.0946,70.8825 40.0944,71.4206 42.1307,71.7191 C43.4123,71.907 44.7048,71.9956 46.0008,72 L46.5,72 Z M28.8637,25.293 C27.3815,26.551 26.0368,27.972 24.8628,29.522 C22.9538,32.043 21.4993,34.904 20.5971,37.935 C19.7537,40.769 19.3952,43.741 19.5265,46.694 C19.6608,49.716 20.3141,52.7115 21.4597,55.5124 C22.7112,58.5723 24.5407,61.3867 26.8212,63.7795 C27.1999,64.1769 27.5908,64.5623 27.9933,64.9353 C27.9957,64.929 27.9982,64.9227 28.0009,64.9165 C28.0216,64.8676 28.05,64.8245 28.083,64.7831 C29.1595,63.5875 30.2712,62.4223 31.4149,61.2906 C30.3216,60.2797 29.3328,59.1565 28.4691,57.9431 C27.0806,55.9925 26.022,53.8093 25.3529,51.5103 C24.695,49.25 24.4179,46.884 24.5215,44.532 C24.6295,42.079 25.1616,39.65 26.0901,37.377 C27.1041,34.894 28.5897,32.61 30.4393,30.67 C30.9492,30.135 31.4866,29.626 32.0484,29.147 C32.0384,29.147 32.0284,29.146 32.0183,29.146 C31.9562,29.141 31.8949,29.125 31.8381,29.099 C31.7707,29.067 31.7145,29.022 31.6645,28.967 C30.6975,27.768 29.7631,26.543 28.8637,25.293 L28.8637,25.293 Z M130.5,13 L113.739,13 C113.783,14.666 113.78,16.334 113.732,18 L130.5,18 L130.5,18.993 C120.008,18.978 109.515,18.938 99.0223,18.909 C99.0291,18.939 99.0333,18.971 99.0361,19.003 C99.084,20.668 99.0866,22.335 99.0441,24 L104.593,24 L104.593,24.908 C101.718,24.899 98.8431,24.891 95.9684,24.884 L95.9684,24 L98.03,24 C97.9875,22.335 97.9902,20.668 98.038,19.003 C98.0409,18.97 98.0453,18.938 98.0524,18.906 C92.2016,18.89 86.3508,18.877 80.5,18.873 L80.5,18 L112.734,18 C112.686,16.334 112.683,14.666 112.727,13 L68.5,13 L68.5,12 L130.5,12 L130.5,13 Z M134.5,12 L139,12 C139.052,12.008 139.103,12.016 139.155,12.024 C139.201,12.048 139.252,12.065 139.294,12.095 C139.379,12.158 139.443,12.245 139.476,12.345 C139.492,12.395 139.492,12.448 139.5,12.5 L139.5,18.5 C139.492,18.552 139.492,18.605 139.476,18.655 C139.426,18.806 139.306,18.926 139.155,18.976 C139.105,18.992 139.052,18.992 139,19 C137.5,19 136,18.999 134.5,18.998 L134.5,18 L138.5,18 L138.5,13 L134.5,13 L134.5,12 Z M52.1207,13 L64.5,13 L64.5,12 L52.1207,12 L52.1207,13 Z"/>
  </g>
</svg>
