<?xml version="1.0" standalone="no"?>
<!DOCTYPE svg PUBLIC "-//W3C//DTD SVG 20010904//EN"
 "http://www.w3.org/TR/2001/REC-SVG-20010904/DTD/svg10.dtd">
<svg version="1.0" xmlns="http://www.w3.org/2000/svg"
 width="261.000000pt" height="261.000000pt" viewBox="0 0 261.000000 261.000000"
 preserveAspectRatio="xMidYMid meet">
<metadata>
Created by potrace 1.11, written by Peter Selinger 2001-2013
</metadata>
<g transform="translate(0.000000,261.000000) scale(0.100000,-0.100000)"
fill="#000000" stroke="none">
<path d="M6 2603 c-11 -11 -7 -2581 4 -2588 9 -6 1301 -8 1305 -3 1 2 196 975
211 1056 10 55 14 73 34 172 12 58 24 116 26 130 3 14 18 88 34 165 15 77 31
154 33 170 3 17 24 122 47 235 23 113 43 216 46 230 2 14 9 45 14 70 5 25 12
56 14 70 9 50 47 235 51 250 4 12 19 16 55 16 28 0 50 -2 50 -3 0 -8 101 -521
110 -558 8 -34 21 -100 45 -225 3 -14 12 -59 20 -100 8 -41 17 -84 19 -95 2
-11 30 -148 61 -305 31 -157 59 -294 61 -305 2 -11 11 -54 19 -95 8 -41 17
-86 20 -100 3 -14 18 -90 34 -170 17 -80 32 -156 35 -170 17 -87 49 -249 66
-330 10 -52 19 -98 20 -102 0 -5 36 -8 80 -8 l80 0 0 1294 c0 1247 -2 1328
-27 1302 -4 -3 -7 -581 -7 -1283 l-1 -1278 -47 -2 c-42 -1 -49 1 -53 20 -6 28
-46 226 -51 252 -2 11 -8 43 -14 71 -6 28 -13 64 -16 80 -3 16 -37 187 -76
379 -38 193 -72 359 -74 370 -2 10 -47 235 -100 500 -53 264 -98 491 -100 505
-3 14 -7 32 -9 40 -2 8 -7 31 -10 50 -12 70 -56 284 -61 291 -2 4 -37 7 -78 8
l-75 1 -15 -73 c-19 -91 -76 -374 -82 -407 -2 -14 -7 -36 -10 -50 -3 -14 -8
-36 -10 -50 -3 -14 -20 -101 -39 -195 -19 -93 -37 -181 -39 -195 -3 -14 -17
-83 -31 -155 -15 -71 -29 -141 -31 -155 -3 -14 -16 -79 -29 -145 -13 -66 -26
-133 -29 -150 -3 -16 -15 -73 -26 -125 -11 -52 -23 -108 -26 -125 -4 -24 -102
-514 -120 -600 -2 -11 -9 -47 -15 -80 l-10 -61 -50 -1 -49 0 -2 1281 -3 1281
-586 2 c-323 1 -589 -1 -593 -4z"/>
</g>
</svg>
