<svg xmlns="http://www.w3.org/2000/svg" width="113" height="18" viewBox="0 0 113 18">
  <g fill="#000000" fill-rule="evenodd">
    <polygon points="15.119 17.337 10.922 1.841 6.799 17.337 4.602 17.337 .332 .256 1.941 .256 5.748 15.8 5.797 15.8 9.971 .256 11.896 .256 16.17 15.8 16.217 15.8 19.975 .256 21.512 .256 17.291 17.337"/>
    <path d="M31.82 10.26C31.82 8.529 30.697 7.6 29.16 7.6 27.867 7.6 26.599 8.308 25.574 9.503L25.574 17.336 24.086 17.336 24.086.256 25.549.256 25.549 8.114C26.526 6.941 27.844 6.283 29.404 6.283 31.918 6.283 33.308 7.819 33.308 10.184L33.308 17.335 31.82 17.335 31.82 10.26 31.82 10.26 31.82 10.26zM37.658 1.378C38.365 1.378 38.951 1.962 38.951 2.671 38.951 3.379 38.365 3.964 37.658 3.964 36.949 3.964 36.365 3.379 36.365 2.671 36.365 1.962 36.949 1.378 37.658 1.378L37.658 1.378 37.658 1.378zM38.512 17.337L37.024 17.337 37.024 7.819 35.315 7.819 35.315 6.573 38.512 6.573 38.512 17.337 38.512 17.337 38.512 17.337zM44.15 2.036L44.15 6.573 46.81 6.573 46.81 7.819 44.15 7.819 44.15 15.116C44.15 16.116 44.859 16.165 45.687 16.165 46.371 16.165 46.81 16.091 46.81 16.091L46.81 17.336C46.81 17.336 46.029 17.435 45.15 17.435 44.029 17.435 42.662 17.142 42.662 15.14L42.662 7.82 40.807 7.82 40.807 6.574 42.662 6.574 42.662 2.037 44.15 2.037 44.15 2.036 44.15 2.036zM49.791 11.188L57.402 11.188C57.232 9.233 55.769 7.599 53.646 7.599 51.498 7.6 50.061 9.138 49.791 11.188L49.791 11.188 49.791 11.188zM49.74 12.407C49.935 14.628 51.426 16.311 53.67 16.311 55.135 16.311 56.356 15.626 57.014 14.457L58.746 14.457C57.844 16.409 55.891 17.63 53.67 17.63 50.57 17.63 48.203 15.265 48.203 11.968 48.203 8.675 50.57 6.283 53.646 6.283 56.476 6.283 59.062 8.261 59.062 12.407L49.74 12.407 49.74 12.407 49.74 12.407zM67.414 8.649C66.633 7.965 65.826 7.526 64.682 7.526 63.338 7.526 62.631 8.235 62.631 9.04 62.631 9.649 62.924 10.26 64.047 10.699L65.559 11.309C67.514 12.088 68.268 13.039 68.268 14.554 68.268 15.871 67.145 17.629 64.487 17.629 62.632 17.629 61.362 16.946 60.51 16.115L61.315 15.016C62.12 15.822 63.313 16.382 64.536 16.382 66.024 16.382 66.804 15.53 66.804 14.553 66.804 13.503 66.122 13.064 64.56 12.431L63.535 12.015C61.851 11.33 61.17 10.379 61.17 9.136 61.17 7.648 62.488 6.282 64.756 6.282 66.344 6.282 67.563 6.989 68.246 7.623L67.414 8.649 67.414 8.649 67.414 8.649zM79.936 10.602L79.936 17.337 78.45 17.337 78.45 10.187C78.45 8.529 77.425 7.599 75.886 7.599 74.618 7.599 73.47 8.308 72.447 9.503L72.447 17.337 70.957 17.337 70.957 6.575 72.422 6.575 72.422 8.112C73.35 6.989 74.52 6.283 76.082 6.283 77.889 6.283 79.084 7.088 79.598 8.355 80.768 6.94 82.037 6.283 83.6 6.283 86.135 6.283 87.43 7.819 87.43 10.186L87.43 17.336 85.942 17.336 85.942 10.186C85.942 8.528 84.917 7.598 83.405 7.598 82.112 7.598 80.94 8.332 79.889 9.553 79.912 9.895 79.936 10.259 79.936 10.602M98.271 2.036L98.271 6.573 100.931 6.573 100.931 7.819 98.271 7.819 98.271 15.116C98.271 16.116 98.98 16.165 99.81 16.165 100.492 16.165 100.931 16.091 100.931 16.091L100.931 17.336C100.931 17.336 100.15 17.435 99.273 17.435 98.15 17.435 96.783 17.142 96.783 15.14L96.783 7.82 94.928 7.82 94.928 6.574 96.783 6.574 96.783 2.037 98.271 2.037 98.271 2.036 98.271 2.036zM110.916 10.26C110.916 8.529 109.793 7.6 108.256 7.6 106.961 7.6 105.694 8.308 104.67 9.503L104.67 17.336 103.18 17.336 103.18.256 104.643.256 104.643 8.114C105.622 6.941 106.938 6.283 108.502 6.283 111.012 6.283 112.404 7.819 112.404 10.184L112.404 17.335 110.916 17.335 110.916 10.26 110.916 10.26 110.916 10.26zM91.779 1.378C92.486 1.378 93.074 1.962 93.074 2.671 93.074 3.379 92.486 3.964 91.779 3.964 91.072 3.964 90.488 3.379 90.488 2.671 90.488 1.962 91.072 1.378 91.779 1.378L91.779 1.378 91.779 1.378zM92.633 17.337L91.145 17.337 91.145 7.819 89.438 7.819 89.438 6.573 92.633 6.573 92.633 17.337 92.633 17.337 92.633 17.337z"/>
  </g>
</svg>
